<?xml version="1.0" encoding="UTF-8" standalone="no"?>
<!-- Created with Inkscape (http://www.inkscape.org/) -->

<svg
   width="79.069397mm"
   height="79.069534mm"
   viewBox="0 0 79.069397 79.069534"
   version="1.1"
   id="svg1"
   xml:space="preserve"
   inkscape:export-filename="icono_argopy.png"
   inkscape:export-xdpi="149"
   inkscape:export-ydpi="149"
   inkscape:version="1.3.2 (091e20e, 2023-11-25)"
   sodipodi:docname="02_melting.svg"
   xmlns:inkscape="http://www.inkscape.org/namespaces/inkscape"
   xmlns:sodipodi="http://sodipodi.sourceforge.net/DTD/sodipodi-0.dtd"
   xmlns="http://www.w3.org/2000/svg"
   xmlns:svg="http://www.w3.org/2000/svg"><sodipodi:namedview
     id="namedview1"
     pagecolor="#ffffff"
     bordercolor="#666666"
     borderopacity="1.0"
     inkscape:showpageshadow="2"
     inkscape:pageopacity="0.0"
     inkscape:pagecheckerboard="0"
     inkscape:deskcolor="#d1d1d1"
     inkscape:document-units="mm"
     inkscape:zoom="0.7349537"
     inkscape:cx="-178.92284"
     inkscape:cy="-23.130709"
     inkscape:window-width="1920"
     inkscape:window-height="1052"
     inkscape:window-x="0"
     inkscape:window-y="0"
     inkscape:window-maximized="1"
     inkscape:current-layer="layer1" /><defs
     id="defs1" /><g
     inkscape:label="Calque 1"
     inkscape:groupmode="layer"
     id="layer1"
     transform="translate(-114.2624,-17.521684)"><g
       id="g73"
       transform="translate(2.2274795,16.483343)"><g
         id="g35"
         transform="translate(38.086802,-41.540468)"
         style="stroke:#125b9a;stroke-opacity:1"><g
           id="g30"
           style="stroke:#04709d;stroke-width:2.76098;stroke-dasharray:none;stroke-opacity:1"
           transform="matrix(0.91359129,0,0,0.91359129,10.772208,-35.088208)"><path
             style="fill:none;fill-rule:evenodd;stroke:#04709d;stroke-width:2.76098;stroke-linecap:round;stroke-linejoin:miter;stroke-dasharray:none;stroke-opacity:1"
             d="M 89.980798,136.13555 H 134.7503"
             id="path27" /><path
             style="fill:none;fill-rule:evenodd;stroke:#04709d;stroke-width:2.76098;stroke-linecap:butt;stroke-linejoin:miter;stroke-dasharray:none;stroke-opacity:1"
             d="m 130.52679,136.13585 -3.36955,-5.67635 -6.76169,-2.83798 -2.58309,-8.06757 -6.90892,-5.7447 -6.81654,11.04553 -4.363708,0.90511 -6.074593,10.31808 z"
             id="path28" /><path
             style="fill:none;fill-rule:evenodd;stroke:#04709d;stroke-width:2.76098;stroke-linecap:round;stroke-linejoin:miter;stroke-dasharray:none;stroke-opacity:1"
             d="m 94.12005,139.52133 0.880592,5.10208 9.266898,4.4719 6.14951,6.71015 5.31754,-6.11325 7.12172,-2.47441 4.79167,-3.02208 2.23485,-4.73177"
             id="path29"
             sodipodi:nodetypes="cccccccc" /><path
             style="fill:none;fill-rule:evenodd;stroke:#04709d;stroke-width:2.76098;stroke-linecap:butt;stroke-linejoin:miter;stroke-dasharray:none;stroke-opacity:1"
             d="m 110.86206,113.8696 2.95267,7.76711 -7.21536,8.61384 5.85463,-1.11482 4.73251,6.98911"
             id="path30"
             sodipodi:nodetypes="ccccc" /></g><g
           style="fill:#ffd94a;fill-opacity:1;stroke:#ffd94a;stroke-width:3.48289;stroke-dasharray:none;stroke-opacity:1"
           id="g31"
           transform="matrix(0.1208766,0,0,0.1208766,112.05971,44.444017)"><path
             d="M 106.43715,104.01248 V 87.49499 a 5.5058275,5.5058275 0 0 1 11.01165,0 v 16.51749 a 5.5058275,5.5058275 0 0 1 -11.01165,0 z m 49.55244,60.5641 a 44.04662,44.04662 0 1 1 -44.04662,-44.04662 44.094796,44.094796 0 0 1 44.04662,44.04662 z m -11.01165,0 a 33.034965,33.034965 0 1 0 -33.03497,33.03496 33.069376,33.069376 0 0 0 33.03497,-33.03496 z M 64.000982,124.42533 a 5.5088892,5.5088892 0 0 0 7.790746,-7.79074 L 60.780073,105.62293 a 5.5088907,5.5088907 0 0 0 -7.790746,7.79075 z m 0,80.3025 -11.011655,11.01165 a 5.5088907,5.5088907 0 0 0 7.790746,7.79075 l 11.011655,-11.01166 a 5.5088892,5.5088892 0 0 0 -7.790746,-7.79074 z m 91.988608,-78.69204 a 5.5058274,5.5058274 0 0 0 3.89537,-1.61046 l 11.01166,-11.01165 a 5.5088922,5.5088922 0 0 0 -7.79075,-7.79075 l -11.01165,11.01166 a 5.5058274,5.5058274 0 0 0 3.89537,9.4012 z m 3.89537,78.69204 a 5.5088892,5.5088892 0 0 0 -7.79074,7.79074 l 11.01165,11.01166 a 5.5088922,5.5088922 0 0 0 7.79075,-7.79075 z M 56.8847,164.57658 a 5.5058274,5.5058274 0 0 0 -5.505827,-5.50583 H 34.86139 a 5.50583,5.50583 0 0 0 0,11.01166 h 16.517483 a 5.5058274,5.5058274 0 0 0 5.505827,-5.50583 z m 55.05827,55.05827 a 5.5058274,5.5058274 0 0 0 -5.50582,5.50583 v 16.51748 a 5.5058275,5.5058275 0 0 0 11.01165,0 v -16.51748 a 5.5058274,5.5058274 0 0 0 -5.50583,-5.50583 z m 77.08159,-60.5641 h -16.51749 a 5.50583,5.50583 0 0 0 0,11.01166 h 16.51749 a 5.50583,5.50583 0 0 0 0,-11.01166 z"
             id="path31"
             style="fill:#ffd94a;fill-opacity:1;stroke:#ffd94a;stroke-width:3.48289;stroke-dasharray:none;stroke-opacity:1" /></g><g
           id="g34"
           transform="translate(1.6686695,0.7961353)"
           style="stroke:#04709d;stroke-opacity:1"><path
             style="fill:none;fill-rule:evenodd;stroke:#04709d;stroke-width:0.959;stroke-linecap:butt;stroke-linejoin:miter;stroke-dasharray:none;stroke-opacity:1"
             d="m 106.78644,59.142377 c 2.47507,5.466514 -2.82718,7.641814 0,11.995416"
             id="path32"
             sodipodi:nodetypes="cc" /><path
             style="fill:none;fill-rule:evenodd;stroke:#04709d;stroke-width:0.959;stroke-linecap:butt;stroke-linejoin:miter;stroke-dasharray:none;stroke-opacity:1"
             d="m 103.61144,59.142377 c 2.47507,5.466514 -2.82718,7.641814 0,11.995416"
             id="path33"
             sodipodi:nodetypes="cc" /><path
             style="fill:none;fill-rule:evenodd;stroke:#04709d;stroke-width:0.959;stroke-linecap:butt;stroke-linejoin:miter;stroke-dasharray:none;stroke-opacity:1"
             d="m 100.43643,59.142377 c 2.47507,5.466514 -2.827176,7.641814 0,11.995416"
             id="path34"
             sodipodi:nodetypes="cc" /></g></g><path
         style="fill:none;fill-opacity:1;fill-rule:evenodd;stroke:#04709d;stroke-width:5;stroke-linecap:round;stroke-linejoin:round;stroke-dasharray:none;stroke-opacity:1"
         id="path70-6"
         sodipodi:type="arc"
         sodipodi:cx="151.56956"
         sodipodi:cy="40.573166"
         sodipodi:rx="37.031242"
         sodipodi:ry="37.031242"
         sodipodi:start="3.289218"
         sodipodi:end="3.2807012"
         sodipodi:open="true"
         sodipodi:arc-type="arc"
         d="M 114.94111,35.126251 A 37.031242,37.031242 0 0 1 156.93848,3.9331921 37.031242,37.031242 0 0 1 188.22089,45.864054 37.031242,37.031242 0 0 1 146.35673,77.23567 37.031242,37.031242 0 0 1 114.89604,35.438402" /></g></g></svg>
