<?xml version="1.0" encoding="UTF-8" standalone="no"?>
<!-- Created with Inkscape (http://www.inkscape.org/) -->

<svg
   width="137.18785mm"
   height="109.71521mm"
   viewBox="0 0 137.18785 109.71521"
   version="1.1"
   id="svg1"
   xml:space="preserve"
   xmlns:inkscape="http://www.inkscape.org/namespaces/inkscape"
   xmlns:sodipodi="http://sodipodi.sourceforge.net/DTD/sodipodi-0.dtd"
   xmlns="http://www.w3.org/2000/svg"
   xmlns:svg="http://www.w3.org/2000/svg"><sodipodi:namedview
     id="namedview1"
     pagecolor="#ffffff"
     bordercolor="#666666"
     borderopacity="1.0"
     inkscape:showpageshadow="2"
     inkscape:pageopacity="0.0"
     inkscape:pagecheckerboard="0"
     inkscape:deskcolor="#d1d1d1"
     inkscape:document-units="mm"><inkscape:page
       x="-8.5799575e-06"
       y="3.692754e-06"
       width="137.18787"
       height="109.71521"
       id="page3"
       margin="0"
       bleed="0" /></sodipodi:namedview><defs
     id="defs1"><clipPath
       clipPathUnits="userSpaceOnUse"
       id="clipPath3"><path
         d="M 0,0 H 500 V 500 H 0 Z"
         transform="translate(-90.650005,-343.78491)"
         id="path3" /></clipPath><clipPath
       clipPathUnits="userSpaceOnUse"
       id="clipPath9"><path
         d="M 0,0 H 500 V 500 H 0 Z"
         transform="translate(-407.69981,-314.19501)"
         id="path9" /></clipPath><clipPath
       clipPathUnits="userSpaceOnUse"
       id="clipPath15"><path
         d="M 0,0 H 500 V 500 H 0 Z"
         transform="translate(-110.9118,-229.20971)"
         id="path15" /></clipPath><clipPath
       clipPathUnits="userSpaceOnUse"
       id="clipPath17"><path
         d="M 0,0 H 500 V 500 H 0 Z"
         transform="translate(-466.33071,-58.355204)"
         id="path17" /></clipPath><clipPath
       clipPathUnits="userSpaceOnUse"
       id="clipPath21"><path
         d="M 0,0 H 500 V 500 H 0 Z"
         transform="translate(-197.92641,-94.7634)"
         id="path21" /></clipPath><clipPath
       clipPathUnits="userSpaceOnUse"
       id="clipPath25"><path
         d="M 0,0 H 500 V 500 H 0 Z"
         transform="translate(-335.70281,-292.3527)"
         id="path25" /></clipPath><clipPath
       clipPathUnits="userSpaceOnUse"
       id="clipPath27"><path
         d="M 0,0 H 500 V 500 H 0 Z"
         transform="translate(-104.9733,-129.3542)"
         id="path27" /></clipPath><clipPath
       clipPathUnits="userSpaceOnUse"
       id="clipPath31"><path
         d="M 0,0 H 500 V 500 H 0 Z"
         transform="translate(-319.92741,-57.741899)"
         id="path31" /></clipPath><clipPath
       clipPathUnits="userSpaceOnUse"
       id="clipPath35"><path
         d="M 0,0 H 500 V 500 H 0 Z"
         transform="translate(-177.7965,-70.861004)"
         id="path35" /></clipPath><clipPath
       clipPathUnits="userSpaceOnUse"
       id="clipPath45"><path
         d="M 0,0 H 500 V 500 H 0 Z"
         transform="translate(-325.26821,-132.2145)"
         id="path45" /></clipPath><clipPath
       clipPathUnits="userSpaceOnUse"
       id="clipPath49"><path
         d="M 0,0 H 500 V 500 H 0 Z"
         transform="translate(-370.14811,-182.486)"
         id="path49" /></clipPath><clipPath
       clipPathUnits="userSpaceOnUse"
       id="clipPath51"><path
         d="M 0,0 H 500 V 500 H 0 Z"
         transform="translate(-129.85221,-182.486)"
         id="path51" /></clipPath><clipPath
       clipPathUnits="userSpaceOnUse"
       id="clipPath53"><path
         d="M 0,0 H 500 V 500 H 0 Z"
         transform="translate(-192.4494,-235.7292)"
         id="path53" /></clipPath><clipPath
       clipPathUnits="userSpaceOnUse"
       id="clipPath55"><path
         d="M 0,0 H 500 V 500 H 0 Z"
         transform="translate(-307.54901,-235.7292)"
         id="path55" /></clipPath><clipPath
       clipPathUnits="userSpaceOnUse"
       id="clipPath57"><path
         d="M 0,0 H 500 V 500 H 0 Z"
         transform="translate(-320.05481,-124.4411)"
         id="path57" /></clipPath><clipPath
       clipPathUnits="userSpaceOnUse"
       id="clipPath59"><path
         d="M 0,0 H 500 V 500 H 0 Z"
         transform="translate(-172.9899,-208.07291)"
         id="path59" /></clipPath><clipPath
       clipPathUnits="userSpaceOnUse"
       id="clipPath61"><path
         d="M 0,0 H 500 V 500 H 0 Z"
         transform="translate(-231.55341,-201.2106)"
         id="path61" /></clipPath><clipPath
       clipPathUnits="userSpaceOnUse"
       id="clipPath63"><path
         d="M 0,0 H 500 V 500 H 0 Z"
         transform="translate(-211.35121,-180.31901)"
         id="path63" /></clipPath><clipPath
       clipPathUnits="userSpaceOnUse"
       id="clipPath65"><path
         d="M 0,0 H 500 V 500 H 0 Z"
         transform="translate(-184.8546,-195.60521)"
         id="path65" /></clipPath><clipPath
       clipPathUnits="userSpaceOnUse"
       id="clipPath67"><path
         d="M 0,0 H 500 V 500 H 0 Z"
         transform="translate(-233.2882,-176.5134)"
         id="path67" /></clipPath><clipPath
       clipPathUnits="userSpaceOnUse"
       id="clipPath69"><path
         d="M 0,0 H 500 V 500 H 0 Z"
         transform="translate(-228.70471,-176.5134)"
         id="path69" /></clipPath><clipPath
       clipPathUnits="userSpaceOnUse"
       id="clipPath71"><path
         d="M 0,0 H 500 V 500 H 0 Z"
         transform="translate(-205.74621,-214.5075)"
         id="path71" /></clipPath><clipPath
       clipPathUnits="userSpaceOnUse"
       id="clipPath73"><path
         d="M 0,0 H 500 V 500 H 0 Z"
         transform="translate(-219.04261,-201.2106)"
         id="path73" /></clipPath><clipPath
       clipPathUnits="userSpaceOnUse"
       id="clipPath75"><path
         d="M 0,0 H 500 V 500 H 0 Z"
         transform="translate(-205.74621,-187.91381)"
         id="path75" /></clipPath><clipPath
       clipPathUnits="userSpaceOnUse"
       id="clipPath77"><path
         d="M 0,0 H 500 V 500 H 0 Z"
         transform="translate(-192.4494,-201.2106)"
         id="path77" /></clipPath><clipPath
       clipPathUnits="userSpaceOnUse"
       id="clipPath79"><path
         d="M 0,0 H 500 V 500 H 0 Z"
         transform="translate(-327.00841,-208.07291)"
         id="path79" /></clipPath><clipPath
       clipPathUnits="userSpaceOnUse"
       id="clipPath81"><path
         d="M 0,0 H 500 V 500 H 0 Z"
         transform="translate(-268.4449,-201.2106)"
         id="path81" /></clipPath><clipPath
       clipPathUnits="userSpaceOnUse"
       id="clipPath83"><path
         d="M 0,0 H 500 V 500 H 0 Z"
         transform="translate(-299.6788,-216.8268)"
         id="path83" /></clipPath><clipPath
       clipPathUnits="userSpaceOnUse"
       id="clipPath85"><path
         d="M 0,0 H 500 V 500 H 0 Z"
         transform="translate(-299.6788,-185.5944)"
         id="path85" /></clipPath><clipPath
       clipPathUnits="userSpaceOnUse"
       id="clipPath87"><path
         d="M 0,0 H 500 V 500 H 0 Z"
         transform="translate(-309.86831,-195.7839)"
         id="path87" /></clipPath><clipPath
       clipPathUnits="userSpaceOnUse"
       id="clipPath89"><path
         d="M 0,0 H 500 V 500 H 0 Z"
         transform="translate(-278.6359,-195.7839)"
         id="path89" /></clipPath><clipPath
       clipPathUnits="userSpaceOnUse"
       id="clipPath91"><path
         d="M 0,0 H 500 V 500 H 0 Z"
         transform="translate(-266.71011,-176.5134)"
         id="path91" /></clipPath><clipPath
       clipPathUnits="userSpaceOnUse"
       id="clipPath93"><path
         d="M 0,0 H 500 V 500 H 0 Z"
         transform="translate(-271.29361,-176.5134)"
         id="path93" /></clipPath><clipPath
       clipPathUnits="userSpaceOnUse"
       id="clipPath95"><path
         d="M 0,0 H 500 V 500 H 0 Z"
         transform="translate(-283.795,-244.60131)"
         id="path95" /></clipPath><clipPath
       clipPathUnits="userSpaceOnUse"
       id="clipPath97"><path
         d="M 0,0 H 500 V 500 H 0 Z"
         transform="translate(-256.2853,-197.47331)"
         id="path97" /></clipPath><clipPath
       clipPathUnits="userSpaceOnUse"
       id="clipPath99"><path
         d="M 0,0 H 500 V 500 H 0 Z"
         transform="translate(-244.2916,-216.47241)"
         id="path99" /></clipPath><clipPath
       clipPathUnits="userSpaceOnUse"
       id="clipPath101"><path
         d="M 0,0 H 500 V 500 H 0 Z"
         transform="translate(-251.24131,-216.47241)"
         id="path101" /></clipPath><clipPath
       clipPathUnits="userSpaceOnUse"
       id="clipPath103"><path
         d="M 0,0 H 500 V 500 H 0 Z"
         transform="translate(-247.76671,-210.6276)"
         id="path103" /></clipPath><clipPath
       clipPathUnits="userSpaceOnUse"
       id="clipPath105"><path
         d="M 0,0 H 500 V 500 H 0 Z"
         transform="translate(-254.71641,-210.6276)"
         id="path105" /></clipPath><clipPath
       clipPathUnits="userSpaceOnUse"
       id="clipPath107"><path
         d="M 0,0 H 500 V 500 H 0 Z"
         transform="translate(-258.1915,-216.47241)"
         id="path107" /></clipPath><clipPath
       clipPathUnits="userSpaceOnUse"
       id="clipPath109"><path
         d="M 0,0 H 500 V 500 H 0 Z"
         transform="translate(-211.1686,-233.5251)"
         id="path109" /></clipPath><clipPath
       clipPathUnits="userSpaceOnUse"
       id="clipPath111"><path
         d="M 0,0 H 500 V 500 H 0 Z"
         transform="translate(-294.03631,-233.5251)"
         id="path111" /></clipPath><clipPath
       clipPathUnits="userSpaceOnUse"
       id="clipPath113"><path
         d="M 0,0 H 500 V 500 H 0 Z"
         transform="translate(-90.8161,-98.848305)"
         id="path113" /></clipPath><clipPath
       clipPathUnits="userSpaceOnUse"
       id="clipPath115"><path
         d="M 0,0 H 500 V 500 H 0 Z"
         transform="translate(-409.18421,-98.848305)"
         id="path115" /></clipPath><clipPath
       clipPathUnits="userSpaceOnUse"
       id="clipPath117"><path
         d="M 0,0 H 500 V 500 H 0 Z"
         transform="translate(-275.38731,-279.19701)"
         id="path117" /></clipPath><clipPath
       clipPathUnits="userSpaceOnUse"
       id="clipPath119"><path
         d="M 0,0 H 500 V 500 H 0 Z"
         transform="translate(-288.8302,-298.13981)"
         id="path119" /></clipPath><clipPath
       clipPathUnits="userSpaceOnUse"
       id="clipPath121"><path
         d="M 0,0 H 500 V 500 H 0 Z"
         transform="translate(-44.136401,-333.09831)"
         id="path121" /></clipPath><clipPath
       clipPathUnits="userSpaceOnUse"
       id="clipPath123"><path
         d="M 0,0 H 500 V 500 H 0 Z"
         transform="translate(-80.447905,-333.09831)"
         id="path123" /></clipPath><clipPath
       clipPathUnits="userSpaceOnUse"
       id="clipPath125"><path
         d="M 0,0 H 500 V 500 H 0 Z"
         transform="translate(-65.941502,-318.80981)"
         id="path125" /></clipPath><clipPath
       clipPathUnits="userSpaceOnUse"
       id="clipPath127"><path
         d="M 0,0 H 500 V 500 H 0 Z"
         transform="translate(-71.540202,-316.97531)"
         id="path127" /></clipPath><clipPath
       clipPathUnits="userSpaceOnUse"
       id="clipPath129"><path
         d="M 0,0 H 500 V 500 H 0 Z"
         transform="translate(-62.311202,-327.85611)"
         id="path129" /></clipPath><clipPath
       clipPathUnits="userSpaceOnUse"
       id="clipPath131"><path
         d="M 0,0 H 500 V 500 H 0 Z"
         transform="translate(-78.106599,-362.30931)"
         id="path131" /></clipPath><clipPath
       clipPathUnits="userSpaceOnUse"
       id="clipPath133"><path
         d="M 0,0 H 500 V 500 H 0 Z"
         transform="translate(-446.36001,-133.8932)"
         id="path133" /></clipPath><clipPath
       clipPathUnits="userSpaceOnUse"
       id="clipPath135"><path
         d="M 0,0 H 500 V 500 H 0 Z"
         transform="translate(-446.36001,-123.27311)"
         id="path135" /></clipPath><clipPath
       clipPathUnits="userSpaceOnUse"
       id="clipPath137"><path
         d="M 0,0 H 500 V 500 H 0 Z"
         transform="translate(-446.36001,-112.65401)"
         id="path137" /></clipPath><clipPath
       clipPathUnits="userSpaceOnUse"
       id="clipPath219"><path
         d="M 0,0 H 500 V 500 H 0 Z"
         transform="translate(-30.407901,-164.4401)"
         id="path219" /></clipPath><clipPath
       clipPathUnits="userSpaceOnUse"
       id="clipPath221"><path
         d="M 0,0 H 500 V 500 H 0 Z"
         transform="translate(-45.378601,-156.51341)"
         id="path221" /></clipPath><clipPath
       clipPathUnits="userSpaceOnUse"
       id="clipPath222"><path
         d="M 134.998,265.864 H 373.477 V 146.916 H 134.998 Z"
         transform="translate(-136.4977,-247.96361)"
         id="path222" /></clipPath><clipPath
       clipPathUnits="userSpaceOnUse"
       id="clipPath223"><path
         d="M 134.998,265.864 H 373.477 V 146.916 H 134.998 Z"
         transform="translate(-152.8986,-148.4157)"
         id="path223" /></clipPath><clipPath
       clipPathUnits="userSpaceOnUse"
       id="clipPath224"><path
         d="M 134.998,265.864 H 373.477 V 146.916 H 134.998 Z"
         transform="translate(-371.97671,-247.96361)"
         id="path224" /></clipPath><clipPath
       clipPathUnits="userSpaceOnUse"
       id="clipPath225"><path
         d="M 134.998,265.864 H 373.477 V 146.916 H 134.998 Z"
         transform="translate(-355.57631,-148.4157)"
         id="path225" /></clipPath><clipPath
       clipPathUnits="userSpaceOnUse"
       id="clipPath230"><path
         d="M 0,0 H 500 V 500 H 0 Z"
         transform="matrix(1.3333333,0,0,-1.3333333,0,666.66667)"
         id="path230" /></clipPath><clipPath
       clipPathUnits="userSpaceOnUse"
       id="clipPath252"><path
         d="M 0,0 H 500 V 500 H 0 Z"
         transform="translate(-376.24181,-306.27511)"
         id="path252" /></clipPath><clipPath
       clipPathUnits="userSpaceOnUse"
       id="clipPath254"><path
         d="M 0,0 H 500 V 500 H 0 Z"
         transform="translate(-376.23991,-331.48501)"
         id="path254" /></clipPath></defs><g
     id="layer-MC1"
     inkscape:groupmode="layer"
     inkscape:label="OBJECTS"
     transform="matrix(0.26458333,0,0,0.26458334,184.64043,-102.08055)"><g
       id="g2"
       transform="translate(-770.56944,201.94504)"><path
         id="path2"
         d="m 0,0 c 0,-12.42 -7.98,-22.98 -19.11,-26.81 -2.9,-1.01 -6.01,-1.55 -9.25,-1.55 -3.23,0 -6.33,0.54 -9.21,1.54 -11.14,3.82 -19.15,14.39 -19.15,26.82 0,15.66 12.7,28.36 28.36,28.36 C -12.69,28.36 0,15.66 0,0"
         style="fill:#04709d;fill-opacity:1;fill-rule:nonzero;stroke:none"
         transform="matrix(1.3333333,0,0,-1.3333333,222.84238,243.6697)"
         clip-path="url(#clipPath3)" /><path
         id="path8"
         d="m 0,0 c 0,-0.49 -0.01,-0.98 -0.04,-1.47 -0.109,-2.23 -0.48,-4.39 -1.09,-6.45 -3.42,-11.81 -14.309,-20.44 -27.229,-20.44 -1.051,0 -2.08,0.06 -3.101,0.18 -1.22,0.12 -2.41,0.33 -3.58,0.62 -12.44,3 -21.68,14.2 -21.68,27.56 0,15.67 12.7,28.37 28.361,28.37 10.119,0 19,-5.3 24.019,-13.28 1.28,-2.02 2.3,-4.22 3.03,-6.54 C -0.46,5.85 0,2.98 0,0"
         style="fill:#04709d;fill-opacity:1;fill-rule:nonzero;stroke:none"
         transform="matrix(1.3333333,0,0,-1.3333333,538.09527,221.69785)"
         clip-path="url(#clipPath9)" /><path
         id="path14"
         d="m 0,0 c 0,-3.424 -2.775,-6.198 -6.199,-6.198 -3.423,0 -6.198,2.774 -6.198,6.198 0,3.424 2.775,6.199 6.198,6.199 C -2.775,6.199 0,3.424 0,0"
         style="fill:#04709d;fill-opacity:1;fill-rule:nonzero;stroke:none"
         transform="matrix(1.3333333,0,0,-1.3333333,147.8824,361.05373)"
         clip-path="url(#clipPath15)" /><path
         id="path16"
         d="m 0,0 c 0,-3.424 -2.775,-6.198 -6.199,-6.198 -3.423,0 -6.198,2.774 -6.198,6.198 0,3.424 2.775,6.199 6.198,6.199 C -2.775,6.199 0,3.424 0,0"
         style="fill:#04709d;fill-opacity:1;fill-rule:nonzero;stroke:none"
         transform="matrix(1.3333333,0,0,-1.3333333,591.22114,546.3224)"
         clip-path="url(#clipPath17)" /><path
         id="path20"
         d="m 0,0 c 0,-2.738 -2.219,-4.958 -4.957,-4.958 -2.738,0 -4.958,2.22 -4.958,4.958 0,2.737 2.22,4.957 4.958,4.957 C -2.219,4.957 0,2.737 0,0"
         style="fill:#ffd94a;fill-opacity:1;fill-rule:nonzero;stroke:none"
         transform="matrix(1.3333333,0,0,-1.3333333,263.90187,540.31547)"
         clip-path="url(#clipPath21)" /><path
         id="path24"
         d="m 0,0 c 0,-2.738 -2.22,-4.957 -4.958,-4.957 -2.737,0 -4.957,2.219 -4.957,4.957 0,2.738 2.22,4.958 4.957,4.958 C -2.22,4.958 0,2.738 0,0"
         style="fill:#357da6;fill-opacity:1;fill-rule:nonzero;stroke:none"
         transform="matrix(1.3333333,0,0,-1.3333333,447.60373,276.86307)"
         clip-path="url(#clipPath25)" /><path
         id="path26"
         d="m 0,0 -31.321,-11.428 5.763,32.839 5.764,32.839 L 5.763,32.839 31.321,11.428 Z"
         style="fill:none;stroke:#04709d;stroke-width:2;stroke-linecap:round;stroke-linejoin:round;stroke-miterlimit:10;stroke-dasharray:none;stroke-opacity:1"
         transform="matrix(1.3333333,0,0,-1.3333333,139.9644,494.1944)"
         clip-path="url(#clipPath27)" /><path
         id="path30"
         d="M 0,0 -11.253,6.648 0.132,13.069 11.517,19.49 11.385,6.421 11.253,-6.649 Z"
         style="fill:#04709d;fill-opacity:1;fill-rule:nonzero;stroke:none"
         transform="matrix(1.3333333,0,0,-1.3333333,426.56987,589.67747)"
         clip-path="url(#clipPath31)" /><path
         id="path34"
         d="m 0,0 1.692,-6.698 -6.647,1.883 -6.647,1.883 4.955,4.816 4.955,4.814 z"
         style="fill:none;stroke:#04709d;stroke-width:2.31;stroke-linecap:round;stroke-linejoin:round;stroke-miterlimit:10;stroke-dasharray:none;stroke-opacity:1"
         transform="matrix(1.3333333,0,0,-1.3333333,237.062,572.18533)"
         clip-path="url(#clipPath35)" /><path
         id="path44"
         d="m 0,0 -11.482,-34.168 -34.168,11.481 11.482,34.168 z"
         style="fill:none;stroke:#ffd94a;stroke-width:1;stroke-linecap:round;stroke-linejoin:round;stroke-miterlimit:10;stroke-dasharray:none;stroke-opacity:1"
         transform="matrix(1.3333333,0,0,-1.3333333,433.69093,490.38067)"
         clip-path="url(#clipPath45)" /><path
         id="path48"
         d="M 0,0 C 0,0 -28.337,41.363 -31.229,44.531 -34.121,47.7 -73.047,27.865 -73.047,27.865 l 11.201,-45.225 c 0,0 19.051,-4.523 13.846,26.943 l 13.67,-1.048 16.402,-26.121 z"
         style="fill:#d15753;fill-opacity:1;fill-rule:nonzero;stroke:none"
         transform="matrix(1.3333333,0,0,-1.3333333,493.5308,423.352)"
         clip-path="url(#clipPath49)" /><path
         id="path50"
         d="M 0,0 C 0,0 28.337,41.363 31.229,44.531 34.121,47.7 73.047,27.865 73.047,27.865 L 61.845,-17.36 c 0,0 -19.05,-4.523 -13.845,26.943 L 34.329,8.535 17.928,-17.586 Z"
         style="fill:#d15753;fill-opacity:1;fill-rule:nonzero;stroke:none"
         transform="matrix(1.3333333,0,0,-1.3333333,173.13627,423.352)"
         clip-path="url(#clipPath51)" /><path
         id="path52"
         d="m 0,0 c 0,0 1.586,9.261 2.453,10.758 0.868,1.496 29.061,6.287 30.579,5.301 1.518,-0.986 6.072,-10.038 6.072,-10.038 z"
         style="fill:#1b252d;fill-opacity:1;fill-rule:nonzero;stroke:none"
         transform="matrix(1.3333333,0,0,-1.3333333,256.5992,352.36107)"
         clip-path="url(#clipPath53)" /><path
         id="path54"
         d="m 0,0 c 0,0 -1.586,9.261 -2.454,10.758 -0.867,1.496 -29.06,6.287 -30.578,5.301 -1.518,-0.986 -6.072,-10.038 -6.072,-10.038 z"
         style="fill:#1b252d;fill-opacity:1;fill-rule:nonzero;stroke:none"
         transform="matrix(1.3333333,0,0,-1.3333333,410.06533,352.36107)"
         clip-path="url(#clipPath55)" /><path
         id="path56"
         d="m 0,0 c -22.15,3.8 -31.95,38.55 -36,49.71 -5.2,14.36 -34.06,13.98 -34.06,13.98 0,0 -28.85,0.38 -34.06,-13.98 -4.04,-11.16 -13.84,-45.91 -36,-49.71 -15.18,-2.609 -33.83,12.66 -27.32,39.48 6.5,26.82 26.89,69.84 31.66,73.661 2.83,2.259 16.93,5.089 31.92,7.019 10.3,1.32 26.03,2.22 33.8,2.22 7.77,0 23.5,-0.9 33.8,-2.22 14.99,-1.93 29.1,-4.76 31.93,-7.019 C 0.44,109.32 20.82,66.3 27.33,39.48 33.84,12.66 15.19,-2.609 0,0"
         style="fill:#f2f2f2;fill-opacity:1;fill-rule:nonzero;stroke:none"
         transform="matrix(1.3333333,0,0,-1.3333333,426.73973,500.7452)"
         clip-path="url(#clipPath57)" /><path
         id="path58"
         d="m 0,0 c -15.535,-28.2 -26.243,-69.654 0.443,-76.624 19.016,-4.967 39.135,38.866 41.454,47.68 C 38.14,-34.584 14.031,-69.174 2.178,-66.194 -12.309,-62.553 -6.914,-17.087 0,0"
         style="fill:#e8e8e8;fill-opacity:1;fill-rule:nonzero;stroke:none"
         transform="matrix(1.3333333,0,0,-1.3333333,230.6532,389.23613)"
         clip-path="url(#clipPath59)" /><path
         id="path60"
         d="m 0,0 c 0,-14.253 -11.554,-25.808 -25.807,-25.808 -14.253,0 -25.808,11.555 -25.808,25.808 0,14.253 11.555,25.807 25.808,25.807 C -11.554,25.807 0,14.253 0,0"
         style="fill:#cfcccd;fill-opacity:1;fill-rule:nonzero;stroke:none"
         transform="matrix(1.3333333,0,0,-1.3333333,308.73787,398.38587)"
         clip-path="url(#clipPath61)" /><path
         id="path62"
         d="m 0,0 h -11.21 c -1.945,0 -3.536,1.591 -3.536,3.535 v 34.712 c 0,1.944 1.591,3.536 3.536,3.536 H 0 c 1.945,0 3.536,-1.592 3.536,-3.536 V 3.535 C 3.536,1.591 1.945,0 0,0"
         style="fill:#319a95;fill-opacity:1;fill-rule:nonzero;stroke:none"
         transform="matrix(1.3333333,0,0,-1.3333333,281.8016,426.24133)"
         clip-path="url(#clipPath63)" /><path
         id="path64"
         d="m 0,0 v 11.21 c 0,1.945 1.591,3.536 3.536,3.536 h 34.711 c 1.945,0 3.536,-1.591 3.536,-3.536 V 0 c 0,-1.944 -1.591,-3.536 -3.536,-3.536 H 3.536 C 1.591,-3.536 0,-1.944 0,0"
         style="fill:#319a95;fill-opacity:1;fill-rule:nonzero;stroke:none"
         transform="matrix(1.3333333,0,0,-1.3333333,246.4728,405.85973)"
         clip-path="url(#clipPath65)" /><path
         id="path66"
         d="m 0,0 c 0,-8.643 -7.006,-15.649 -15.649,-15.649 -8.643,0 -15.65,7.006 -15.65,15.649 0,8.644 7.007,15.649 15.65,15.649 C -7.006,15.649 0,8.644 0,0"
         style="fill:#1b252d;fill-opacity:1;fill-rule:nonzero;stroke:none"
         transform="matrix(1.3333333,0,0,-1.3333333,311.05093,431.31547)"
         clip-path="url(#clipPath67)" /><path
         id="path68"
         d="m 0,0 c 0,-6.111 -4.955,-11.065 -11.066,-11.065 -6.112,0 -11.066,4.954 -11.066,11.065 0,6.111 4.954,11.066 11.066,11.066 C -4.955,11.066 0,6.111 0,0"
         style="fill:#04709d;fill-opacity:1;fill-rule:nonzero;stroke:none"
         transform="matrix(1.3333333,0,0,-1.3333333,304.9396,431.31547)"
         clip-path="url(#clipPath69)" /><path
         id="path70"
         d="m 0,0 h -2.786 c -0.793,0 -1.236,0.915 -0.745,1.538 l 1.158,1.467 1.627,2.061 c 0.381,0.482 1.111,0.482 1.492,0 L 2.373,3.005 3.531,1.538 C 4.022,0.915 3.579,0 2.785,0 Z"
         style="fill:#ffffff;fill-opacity:1;fill-rule:nonzero;stroke:none"
         transform="matrix(1.3333333,0,0,-1.3333333,274.32827,380.65667)"
         clip-path="url(#clipPath71)" /><path
         id="path72"
         d="M 0,0 V 2.785 C 0,3.578 0.916,4.022 1.539,3.53 L 3.006,2.372 5.067,0.745 c 0.482,-0.38 0.482,-1.11 0,-1.491 L 3.006,-2.373 1.539,-3.531 C 0.916,-4.022 0,-3.579 0,-2.785 Z"
         style="fill:#ffffff;fill-opacity:1;fill-rule:nonzero;stroke:none"
         transform="matrix(1.3333333,0,0,-1.3333333,292.0568,398.38587)"
         clip-path="url(#clipPath73)" /><path
         id="path74"
         d="M 0,0 H 2.785 C 3.579,0 4.022,-0.916 3.531,-1.538 L 2.373,-3.006 0.746,-5.066 c -0.381,-0.483 -1.111,-0.483 -1.492,0 l -1.627,2.06 -1.158,1.468 C -4.022,-0.916 -3.579,0 -2.786,0 Z"
         style="fill:#ffffff;fill-opacity:1;fill-rule:nonzero;stroke:none"
         transform="matrix(1.3333333,0,0,-1.3333333,274.32827,416.11493)"
         clip-path="url(#clipPath75)" /><path
         id="path76"
         d="m 0,0 v -2.785 c 0,-0.794 -0.916,-1.237 -1.539,-0.746 l -1.466,1.158 -2.062,1.627 c -0.481,0.381 -0.481,1.111 0,1.491 l 2.062,1.627 1.466,1.158 C -0.916,4.022 0,3.578 0,2.785 Z"
         style="fill:#ffffff;fill-opacity:1;fill-rule:nonzero;stroke:none"
         transform="matrix(1.3333333,0,0,-1.3333333,256.5992,398.38587)"
         clip-path="url(#clipPath77)" /><path
         id="path78"
         d="m 0,0 c 15.535,-28.2 26.243,-69.654 -0.443,-76.624 -19.016,-4.967 -39.135,38.866 -41.454,47.68 3.757,-5.64 27.865,-40.23 39.719,-37.25 C 12.309,-62.553 6.914,-17.087 0,0"
         style="fill:#e8e8e8;fill-opacity:1;fill-rule:nonzero;stroke:none"
         transform="matrix(1.3333333,0,0,-1.3333333,436.0112,389.23613)"
         clip-path="url(#clipPath79)" /><path
         id="path80"
         d="m 0,0 c 0,-14.253 11.554,-25.808 25.807,-25.808 14.253,0 25.807,11.555 25.807,25.808 0,14.253 -11.554,25.807 -25.807,25.807 C 11.554,25.807 0,14.253 0,0"
         style="fill:#cfcccd;fill-opacity:1;fill-rule:nonzero;stroke:none"
         transform="matrix(1.3333333,0,0,-1.3333333,357.92653,398.38587)"
         clip-path="url(#clipPath81)" /><path
         id="path82"
         d="m 0,0 c 0,-2.997 -2.43,-5.427 -5.427,-5.427 -2.997,0 -5.427,2.43 -5.427,5.427 0,2.997 2.43,5.427 5.427,5.427 C -2.43,5.427 0,2.997 0,0"
         style="fill:#319a95;fill-opacity:1;fill-rule:nonzero;stroke:none"
         transform="matrix(1.3333333,0,0,-1.3333333,399.57173,377.56427)"
         clip-path="url(#clipPath83)" /><path
         id="path84"
         d="m 0,0 c 0,-2.997 -2.43,-5.427 -5.427,-5.427 -2.997,0 -5.427,2.43 -5.427,5.427 0,2.997 2.43,5.427 5.427,5.427 C -2.43,5.427 0,2.997 0,0"
         style="fill:#319a95;fill-opacity:1;fill-rule:nonzero;stroke:none"
         transform="matrix(1.3333333,0,0,-1.3333333,399.57173,419.20747)"
         clip-path="url(#clipPath85)" /><path
         id="path86"
         d="m 0,0 c -2.997,0 -5.427,2.43 -5.427,5.427 0,2.997 2.43,5.427 5.427,5.427 2.997,0 5.427,-2.43 5.427,-5.427 C 5.427,2.43 2.997,0 0,0"
         style="fill:#319a95;fill-opacity:1;fill-rule:nonzero;stroke:none"
         transform="matrix(1.3333333,0,0,-1.3333333,413.15773,405.62147)"
         clip-path="url(#clipPath87)" /><path
         id="path88"
         d="m 0,0 c -2.997,0 -5.427,2.43 -5.427,5.427 0,2.997 2.43,5.427 5.427,5.427 2.997,0 5.427,-2.43 5.427,-5.427 C 5.427,2.43 2.997,0 0,0"
         style="fill:#319a95;fill-opacity:1;fill-rule:nonzero;stroke:none"
         transform="matrix(1.3333333,0,0,-1.3333333,371.51453,405.62147)"
         clip-path="url(#clipPath89)" /><path
         id="path90"
         d="m 0,0 c 0,-8.643 7.006,-15.649 15.649,-15.649 8.643,0 15.65,7.006 15.65,15.649 0,8.644 -7.007,15.649 -15.65,15.649 C 7.006,15.649 0,8.644 0,0"
         style="fill:#1b252d;fill-opacity:1;fill-rule:nonzero;stroke:none"
         transform="matrix(1.3333333,0,0,-1.3333333,355.61347,431.31547)"
         clip-path="url(#clipPath91)" /><path
         id="path92"
         d="m 0,0 c 0,-6.111 4.955,-11.065 11.066,-11.065 6.112,0 11.066,4.954 11.066,11.065 0,6.111 -4.954,11.066 -11.066,11.066 C 4.955,11.066 0,6.111 0,0"
         style="fill:#04709d;fill-opacity:1;fill-rule:nonzero;stroke:none"
         transform="matrix(1.3333333,0,0,-1.3333333,361.7248,431.31547)"
         clip-path="url(#clipPath93)" /><path
         id="path94"
         d="m 0,0 c -1.27,-3.2 -6.98,-17.49 -8.27,-19.61 -1.44,-2.38 -25.53,-1.95 -25.53,-1.95 0,0 -24.08,-0.43 -25.52,1.95 -1.29,2.12 -7.01,16.41 -8.28,19.61 10.3,1.32 26.03,2.22 33.8,2.22 7.77,0 23.5,-0.9 33.8,-2.22"
         style="fill:#04709d;fill-opacity:1;fill-rule:nonzero;stroke:none"
         transform="matrix(1.3333333,0,0,-1.3333333,378.39333,340.5316)"
         clip-path="url(#clipPath95)" /><path
         id="path96"
         d="m 0,0 c 0,-3.474 -2.816,-6.29 -6.291,-6.29 -3.473,0 -6.29,2.816 -6.29,6.29 0,3.474 2.817,6.29 6.29,6.29 C -2.816,6.29 0,3.474 0,0"
         style="fill:#282f21;fill-opacity:1;fill-rule:nonzero;stroke:none"
         transform="matrix(1.3333333,0,0,-1.3333333,341.71373,403.36893)"
         clip-path="url(#clipPath97)" /><path
         id="path98"
         d="m 0,0 c 0,-0.688 -0.558,-1.246 -1.247,-1.246 -0.688,0 -1.246,0.558 -1.246,1.246 0,0.688 0.558,1.247 1.246,1.247 C -0.558,1.247 0,0.688 0,0"
         style="fill:#161921;fill-opacity:1;fill-rule:nonzero;stroke:none"
         transform="matrix(1.3333333,0,0,-1.3333333,325.72213,378.0368)"
         clip-path="url(#clipPath99)" /><path
         id="path100"
         d="m 0,0 c 0,-0.688 -0.558,-1.246 -1.247,-1.246 -0.688,0 -1.246,0.558 -1.246,1.246 0,0.688 0.558,1.247 1.246,1.247 C -0.558,1.247 0,0.688 0,0"
         style="fill:#161921;fill-opacity:1;fill-rule:nonzero;stroke:none"
         transform="matrix(1.3333333,0,0,-1.3333333,334.9884,378.0368)"
         clip-path="url(#clipPath101)" /><path
         id="path102"
         d="m 0,0 c 0,-0.688 -0.558,-1.247 -1.247,-1.247 -0.688,0 -1.246,0.559 -1.246,1.247 0,0.688 0.558,1.246 1.246,1.246 C -0.558,1.246 0,0.688 0,0"
         style="fill:#161921;fill-opacity:1;fill-rule:nonzero;stroke:none"
         transform="matrix(1.3333333,0,0,-1.3333333,330.3556,385.82987)"
         clip-path="url(#clipPath103)" /><path
         id="path104"
         d="m 0,0 c 0,-0.688 -0.558,-1.247 -1.247,-1.247 -0.688,0 -1.246,0.559 -1.246,1.247 0,0.688 0.558,1.246 1.246,1.246 C -0.558,1.246 0,0.688 0,0"
         style="fill:#161921;fill-opacity:1;fill-rule:nonzero;stroke:none"
         transform="matrix(1.3333333,0,0,-1.3333333,339.62187,385.82987)"
         clip-path="url(#clipPath105)" /><path
         id="path106"
         d="m 0,0 c 0,-0.688 -0.558,-1.246 -1.247,-1.246 -0.688,0 -1.246,0.558 -1.246,1.246 0,0.688 0.558,1.247 1.246,1.247 C -0.558,1.247 0,0.688 0,0"
         style="fill:#161921;fill-opacity:1;fill-rule:nonzero;stroke:none"
         transform="matrix(1.3333333,0,0,-1.3333333,344.25533,378.0368)"
         clip-path="url(#clipPath107)" /><path
         id="path108"
         d="m 0,0 h -5.205 c -1.272,0 -2.313,1.041 -2.313,2.313 0,1.273 1.041,2.314 2.313,2.314 L 0,4.627 C 1.272,4.627 2.313,3.586 2.313,2.313 2.313,1.041 1.272,0 0,0"
         style="fill:#1c1c1e;fill-opacity:1;fill-rule:nonzero;stroke:none"
         transform="matrix(1.3333333,0,0,-1.3333333,281.55813,355.29987)"
         clip-path="url(#clipPath109)" /><path
         id="path110"
         d="m 0,0 h -5.205 c -1.272,0 -2.313,1.041 -2.313,2.313 0,1.273 1.041,2.314 2.313,2.314 L 0,4.627 C 1.272,4.627 2.313,3.586 2.313,2.313 2.313,1.041 1.272,0 0,0"
         style="fill:#1c1c1e;fill-opacity:1;fill-rule:nonzero;stroke:none"
         transform="matrix(1.3333333,0,0,-1.3333333,392.0484,355.29987)"
         clip-path="url(#clipPath111)" /><path
         id="path112"
         d="m 0,0 22.873,47.922 c 6.814,36.575 7.748,55.135 15.701,67.166 l 36.01,44.893 c 2.706,2.513 6.168,4.045 9.844,4.349 l 50.353,0.725 c 0,0 9.657,-23.386 -42.265,-23.965 L 68.914,98.625 c -7.744,-20.275 0.761,-30.149 9.755,-24.96 0,0 44.01,23.354 53.028,11.318 C 137.614,77.086 95.454,42.994 95.454,42.994 92.768,28.086 97.203,27.977 70.344,13.663 L 52.468,-18.772 Z"
         style="fill:#f05a7e;fill-opacity:1;fill-rule:nonzero;stroke:none"
         transform="matrix(1.3333333,0,0,-1.3333333,121.08813,534.86893)"
         clip-path="url(#clipPath113)" /><path
         id="path114"
         d="m 0,0 -22.873,47.922 c -6.814,36.575 -7.749,55.135 -15.702,67.166 l -36.009,44.893 c -2.706,2.513 -6.169,4.045 -9.844,4.349 l -50.353,0.725 c 0,0 -9.657,-23.386 42.265,-23.965 l 23.601,-42.465 c 7.745,-20.275 -0.76,-30.149 -9.755,-24.96 0,0 -44.009,23.354 -53.027,11.318 -5.918,-7.897 36.243,-41.989 36.243,-41.989 2.686,-14.908 -1.749,-15.017 25.109,-29.331 l 17.877,-32.435 z"
         style="fill:#f05a7e;fill-opacity:1;fill-rule:nonzero;stroke:none"
         transform="matrix(1.3333333,0,0,-1.3333333,545.57893,534.86893)"
         clip-path="url(#clipPath115)" /><path
         id="path116"
         d="m 0,0 -5.79,-5.76 c -5.204,5.228 -12.165,8.109 -19.597,8.109 -7.433,0 -14.394,-2.881 -19.6,-8.112 l -5.789,5.766 c 6.749,6.781 15.766,10.515 25.389,10.515 C -15.765,10.518 -6.748,6.784 0,0"
         style="fill:#ffd94a;fill-opacity:1;fill-rule:nonzero;stroke:none"
         transform="matrix(1.3333333,0,0,-1.3333333,367.18307,294.404)"
         clip-path="url(#clipPath117)" /><path
         id="path118"
         d="M 0,0 -5.768,-5.787 C -14.614,3.034 -26.355,7.89 -38.83,7.89 -51.305,7.89 -63.046,3.034 -71.893,-5.787 L -77.661,0 C -67.272,10.355 -53.482,16.06 -38.83,16.06 -24.179,16.06 -10.389,10.355 0,0"
         style="fill:#ffd94a;fill-opacity:1;fill-rule:nonzero;stroke:none"
         transform="matrix(1.3333333,0,0,-1.3333333,385.10693,269.14693)"
         clip-path="url(#clipPath119)" /><path
         id="path120"
         d="m 0,0 h -0.092 c -0.709,0 -1.283,0.575 -1.283,1.284 0,0.709 0.574,1.284 1.283,1.284 h 0.03 c 0.772,0 1.463,0.561 1.541,1.329 C 1.551,4.593 1.152,5.204 0.476,5.486 -5.72,8.081 -6.703,20.739 -6.794,22.174 L -6.882,23.54 H 5.9 V 20.972 H -4.108 C -3.649,16.881 -2.099,9.349 1.467,7.855 3.04,7.197 4.056,5.713 4.056,4.075 4.056,1.819 2.236,0 0,0"
         style="fill:#ffd94a;fill-opacity:1;fill-rule:nonzero;stroke:none"
         transform="matrix(1.3333333,0,0,-1.3333333,160.82424,257.9185)"
         clip-path="url(#clipPath121)" /><path
         id="path122"
         d="m 0,0 h 0.092 c 0.709,0 1.283,0.575 1.283,1.284 0,0.709 -0.574,1.284 -1.283,1.284 h -0.03 c -0.772,0 -1.463,0.561 -1.541,1.329 -0.072,0.696 0.327,1.307 1.003,1.589 6.196,2.595 7.179,15.253 7.27,16.688 L 6.882,23.54 H -5.9 V 20.972 H 4.108 C 3.649,16.881 2.099,9.349 -1.467,7.855 -3.04,7.197 -4.056,5.713 -4.056,4.075 -4.056,1.819 -2.236,0 0,0"
         style="fill:#ffd94a;fill-opacity:1;fill-rule:nonzero;stroke:none"
         transform="matrix(1.3333333,0,0,-1.3333333,209.23958,257.9185)"
         clip-path="url(#clipPath123)" /><path
         id="path124"
         d="m 0,0 h -7.261 l 1.285,14.667 h 4.691 z"
         style="fill:#ffd94a;fill-opacity:1;fill-rule:nonzero;stroke:none"
         transform="matrix(1.3333333,0,0,-1.3333333,189.89771,276.96983)"
         clip-path="url(#clipPath125)" /><path
         id="path126"
         d="m 0,0 c -2.9,-1.01 -6.01,-1.55 -9.25,-1.55 -3.23,0 -6.33,0.54 -9.21,1.54 0.69,0.55 1.42,1.04 2.2,1.45 1.09,0.58 2.26,1.02 3.48,1.3 1.07,0.26 2.17,0.39 3.29,0.39 h 0.52 C -7.85,3.13 -6.75,3 -5.68,2.74 -3.6,2.26 -1.66,1.32 0,0"
         style="fill:#ffd94a;fill-opacity:1;fill-rule:nonzero;stroke:none"
         transform="matrix(1.3333333,0,0,-1.3333333,197.36264,279.41583)"
         clip-path="url(#clipPath127)" /><path
         id="path128"
         d="M 0,0 V 0 C -8.257,0 -14.952,6.694 -14.952,14.951 V 31.858 H 14.952 V 14.951 C 14.952,6.694 8.257,0 0,0"
         style="fill:#ffd94a;fill-opacity:1;fill-rule:nonzero;stroke:none"
         transform="matrix(1.3333333,0,0,-1.3333333,185.05731,264.9081)"
         clip-path="url(#clipPath129)" /><path
         id="path130"
         d="m 0,0 h -31.591 c -0.716,0 -1.297,-0.581 -1.297,-1.297 0,-0.717 0.581,-1.298 1.297,-1.298 H 0 c 0.716,0 1.297,0.581 1.297,1.298 C 1.297,-0.581 0.716,0 0,0"
         style="fill:#ffc336;fill-opacity:1;fill-rule:nonzero;stroke:none"
         transform="matrix(1.3333333,0,0,-1.3333333,206.11784,218.9705)"
         clip-path="url(#clipPath131)" /><path
         id="path132"
         d="m 0,0 c -1.161,0 -2.103,0.941 -2.103,2.104 0,1.161 0.942,2.102 2.103,2.102 1.161,0 2.103,-0.941 2.103,-2.102 C 2.103,0.941 1.161,0 0,0"
         style="fill:#04709d;fill-opacity:1;fill-rule:nonzero;stroke:none"
         transform="matrix(1.3333333,0,0,-1.3333333,564.59354,445.60507)"
         clip-path="url(#clipPath133)" /><path
         id="path134"
         d="m 0,0 c -1.161,0 -2.103,0.942 -2.103,2.104 0,1.161 0.942,2.102 2.103,2.102 1.161,0 2.103,-0.941 2.103,-2.102 C 2.103,0.942 1.161,0 0,0"
         style="fill:#04709d;fill-opacity:1;fill-rule:nonzero;stroke:none"
         transform="matrix(1.3333333,0,0,-1.3333333,564.59354,459.7652)"
         clip-path="url(#clipPath135)" /><path
         id="path136"
         d="m 0,0 c -1.161,0 -2.103,0.941 -2.103,2.103 0,1.162 0.942,2.103 2.103,2.103 1.161,0 2.103,-0.941 2.103,-2.103 C 2.103,0.941 1.161,0 0,0"
         style="fill:#04709d;fill-opacity:1;fill-rule:nonzero;stroke:none"
         transform="matrix(1.3333333,0,0,-1.3333333,564.59354,473.924)"
         clip-path="url(#clipPath137)" /><g
         id="g3"
         transform="translate(43.407032,-64.973235)"><path
           id="path218"
           d="M 0,0 7.044,-22.897"
           style="fill:none;stroke:#04709d;stroke-width:1;stroke-linecap:round;stroke-linejoin:round;stroke-miterlimit:10;stroke-dasharray:none;stroke-opacity:1"
           transform="matrix(1.3333333,0,0,-1.3333333,40.543867,447.4132)"
           clip-path="url(#clipPath219)" /><path
           id="path220"
           d="M 0,0 -22.897,-7.044"
           style="fill:none;stroke:#04709d;stroke-width:1;stroke-linecap:round;stroke-linejoin:round;stroke-miterlimit:10;stroke-dasharray:none;stroke-opacity:1"
           transform="matrix(1.3333333,0,0,-1.3333333,60.5048,457.98213)"
           clip-path="url(#clipPath221)" /></g><g
         opacity="0.5"
         id="g229"
         clip-path="url(#clipPath230)"><path
           d="M 0,0 V 16.4 H 16.401"
           style="fill:none;stroke:#ffd94a;stroke-width:3;stroke-linecap:round;stroke-linejoin:round;stroke-miterlimit:10;stroke-dasharray:none;stroke-opacity:1"
           transform="matrix(1.3333333,0,0,-1.3333333,181.99693,336.04853)"
           clip-path="url(#clipPath222)"
           id="path226" /><path
           d="M 0,0 H -16.401 V 16.401"
           style="fill:none;stroke:#ffd94a;stroke-width:3;stroke-linecap:round;stroke-linejoin:round;stroke-miterlimit:10;stroke-dasharray:none;stroke-opacity:1"
           transform="matrix(1.3333333,0,0,-1.3333333,203.8648,468.77907)"
           clip-path="url(#clipPath223)"
           id="path227" /><path
           d="M 0,0 V 16.4 H -16.4"
           style="fill:none;stroke:#ffd94a;stroke-width:3;stroke-linecap:round;stroke-linejoin:round;stroke-miterlimit:10;stroke-dasharray:none;stroke-opacity:1"
           transform="matrix(1.3333333,0,0,-1.3333333,495.96893,336.04853)"
           clip-path="url(#clipPath224)"
           id="path228" /><path
           d="M 0,0 H 16.4 V 16.401"
           style="fill:none;stroke:#ffd94a;stroke-width:3;stroke-linecap:round;stroke-linejoin:round;stroke-miterlimit:10;stroke-dasharray:none;stroke-opacity:1"
           transform="matrix(1.3333333,0,0,-1.3333333,474.10173,468.77907)"
           clip-path="url(#clipPath225)"
           id="path229" /></g><path
         id="path251"
         d="m 0,0 h 36.246 l -9.559,12.761 9.559,10.248 H 0 Z"
         style="fill:#f05a7e;fill-opacity:1;fill-rule:nonzero;stroke:none"
         transform="matrix(1.3333333,0,0,-1.3333333,496.15127,232.25772)"
         clip-path="url(#clipPath252)" /><path
         id="path253"
         d="m 0,0 v -45.47 c -1.22,0.12 -2.41,0.33 -3.58,0.62 V 0 c 0,0.99 0.8,1.79 1.79,1.79 C -0.8,1.79 0,0.99 0,0"
         style="fill:#353d61;fill-opacity:1;fill-rule:nonzero;stroke:none"
         transform="matrix(1.3333333,0,0,-1.3333333,496.14874,198.64452)"
         clip-path="url(#clipPath254)" /></g></g></svg>
