<?xml version="1.0" encoding="UTF-8" standalone="no"?>
<!-- Created with Inkscape (http://www.inkscape.org/) -->

<svg
   width="79.069405mm"
   height="79.069527mm"
   viewBox="0 0 79.069405 79.069527"
   version="1.1"
   id="svg1"
   xml:space="preserve"
   inkscape:export-filename="icono_argopy.png"
   inkscape:export-xdpi="149"
   inkscape:export-ydpi="149"
   inkscape:version="1.3.2 (091e20e, 2023-11-25)"
   sodipodi:docname="04_acid.svg"
   xmlns:inkscape="http://www.inkscape.org/namespaces/inkscape"
   xmlns:sodipodi="http://sodipodi.sourceforge.net/DTD/sodipodi-0.dtd"
   xmlns="http://www.w3.org/2000/svg"
   xmlns:svg="http://www.w3.org/2000/svg"><sodipodi:namedview
     id="namedview1"
     pagecolor="#ffffff"
     bordercolor="#666666"
     borderopacity="1.0"
     inkscape:showpageshadow="2"
     inkscape:pageopacity="0.0"
     inkscape:pagecheckerboard="0"
     inkscape:deskcolor="#d1d1d1"
     inkscape:document-units="mm"
     inkscape:zoom="2.078763"
     inkscape:cx="145.03818"
     inkscape:cy="100.54056"
     inkscape:window-width="1920"
     inkscape:window-height="1052"
     inkscape:window-x="0"
     inkscape:window-y="0"
     inkscape:window-maximized="1"
     inkscape:current-layer="g70" /><defs
     id="defs1"><inkscape:path-effect
       effect="powerclip"
       id="path-effect1"
       is_visible="true"
       lpeversion="1"
       inverse="true"
       flatten="false"
       hide_clip="false"
       message="Utilise la règle de remplissage « fill-rule: evenodd » de la boîte de dialogue &lt;b&gt;Fond et contour&lt;/b&gt; en l'absence de résultat de mise à plat après une conversion en chemin." /><rect
       x="241.91605"
       y="584.14868"
       width="89.946114"
       height="43.900116"
       id="rect55" /><clipPath
       clipPathUnits="userSpaceOnUse"
       id="clipPath1"><path
         style="display:none;fill:#ffffff;fill-opacity:1;fill-rule:evenodd;stroke:none;stroke-width:0.362666;stroke-linecap:round;stroke-linejoin:round;stroke-dasharray:none;stroke-opacity:1"
         id="path1"
         sodipodi:type="arc"
         sodipodi:cx="61.197899"
         sodipodi:cy="197.67149"
         sodipodi:rx="7.4432349"
         sodipodi:ry="7.4432349"
         sodipodi:start="3.3491134"
         sodipodi:end="3.2807012"
         sodipodi:open="true"
         sodipodi:arc-type="arc"
         d="m 53.914361,196.13793 a 7.4432349,7.4432349 0 0 1 8.692312,-5.77514 7.4432349,7.4432349 0 0 1 5.922951,8.59228 7.4432349,7.4432349 0 0 1 -8.489722,6.06903 7.4432349,7.4432349 0 0 1 -6.213336,-8.38469" /><path
         id="lpe_path-effect1"
         style="fill:#ffffff;fill-opacity:1;fill-rule:evenodd;stroke:none;stroke-width:0.362666;stroke-linecap:round;stroke-linejoin:round;stroke-dasharray:none;stroke-opacity:1"
         class="powerclip"
         d="m 33.67141,187.70866 h 55.971024 v 19.9824 H 33.67141 Z m 20.155156,8.93075 a 7.4432349,7.4432349 0 0 0 6.213336,8.38469 7.4432349,7.4432349 0 0 0 8.489722,-6.06903 7.4432349,7.4432349 0 0 0 -5.922951,-8.59228 7.4432349,7.4432349 0 0 0 -8.692312,5.77514" /></clipPath></defs><g
     inkscape:label="Calque 1"
     inkscape:groupmode="layer"
     id="layer1"
     transform="translate(-28.544982,-201.5211)"><g
       id="g70"
       transform="translate(7.1750552,8.654987)"><g
         id="g60"
         transform="translate(0.24101016,23.523972)"><g
           id="g1"
           transform="translate(0,0.52916667)"
           clip-path="url(#clipPath1)"
           inkscape:path-effect="#path-effect1"><g
             style="fill:#04709d;fill-opacity:1"
             id="g51"
             transform="matrix(0.0405918,0,0,0.0405918,37.053314,194.8646)"><g
               id="g50"
               transform="matrix(3.0928391,0,0,3.0928391,-83.426086,-203.30851)"
               style="fill:#04709d;fill-opacity:1"><path
                 d="m 53.169639,80.884833 c 31.83,-26.37 53.720001,-14.49 79.070001,-0.74 15.11,8.2 31.35,17 49.93,17 14.14,0 29.64,-5.12 47,-19.5 3.44012,-2.811121 3.93088,-7.886781 1.09308,-11.304915 -2.8378,-3.418135 -7.91713,-3.8694 -11.31308,-1.005085 -31.83,26.38 -53.72,14.5 -79.07,0.74 -26.61,-14.41 -56.760001,-30.77 -96.930001,2.51 -3.565909,2.775097 -4.127505,7.950671 -1.239838,11.426044 2.887668,3.475372 8.078548,3.871246 11.459838,0.873956 z"
                 id="path49"
                 sodipodi:nodetypes="ccscscccsc"
                 style="fill:#04709d;fill-opacity:1"
                 inkscape:original-d="m 53.169639,80.884833 c 31.83,-26.37 53.720001,-14.49 79.070001,-0.74 15.11,8.2 31.35,17 49.93,17 14.14,0 29.64,-5.12 47,-19.5 3.44012,-2.811121 3.93088,-7.886781 1.09308,-11.304915 -2.8378,-3.418135 -7.91713,-3.8694 -11.31308,-1.005085 -31.83,26.38 -53.72,14.5 -79.07,0.74 -26.61,-14.41 -56.760001,-30.77 -96.930001,2.51 -3.565909,2.775097 -4.127505,7.950671 -1.239838,11.426044 2.887668,3.475372 8.078548,3.871246 11.459838,0.873956 z" /><path
                 d="m 226.26643,80.360562 c 31.83,-26.37 53.72,-14.49 79.07,-0.74 15.11,8.2 31.35,17 49.93,17 14.14,0 29.64,-5.12 47,-19.5 3.44012,-2.811121 3.93088,-7.886781 1.09308,-11.304915 -2.8378,-3.418135 -7.91713,-3.8694 -11.31308,-1.005085 -31.83,26.38 -53.72,14.5 -79.07,0.74 -26.61,-14.41 -56.76,-30.77 -96.93,2.51 -3.56591,2.775097 -4.12751,7.950671 -1.23984,11.426044 2.88767,3.475372 8.07855,3.871246 11.45984,0.873956 z"
                 id="path50"
                 sodipodi:nodetypes="ccscscccsc"
                 style="fill:#04709d;fill-opacity:1"
                 inkscape:original-d="m 226.26643,80.360562 c 31.83,-26.37 53.72,-14.49 79.07,-0.74 15.11,8.2 31.35,17 49.93,17 14.14,0 29.64,-5.12 47,-19.5 3.44012,-2.811121 3.93088,-7.886781 1.09308,-11.304915 -2.8378,-3.418135 -7.91713,-3.8694 -11.31308,-1.005085 -31.83,26.38 -53.72,14.5 -79.07,0.74 -26.61,-14.41 -56.76,-30.77 -96.93,2.51 -3.56591,2.775097 -4.12751,7.950671 -1.23984,11.426044 2.88767,3.475372 8.07855,3.871246 11.45984,0.873956 z" /></g></g><g
             style="fill:#04709d;fill-opacity:1"
             id="g53"
             transform="matrix(0.0405918,0,0,0.0405918,37.157886,198.74778)"><g
               id="g52"
               transform="matrix(3.0928391,0,0,3.0928391,-83.426086,-203.30851)"
               style="fill:#04709d;fill-opacity:1"><path
                 d="m 53.169639,80.884833 c 31.83,-26.37 53.720001,-14.49 79.070001,-0.74 15.11,8.2 31.35,17 49.93,17 14.14,0 29.64,-5.12 47,-19.5 3.44012,-2.811121 3.93088,-7.886781 1.09308,-11.304915 -2.8378,-3.418135 -7.91713,-3.8694 -11.31308,-1.005085 -31.83,26.38 -53.72,14.5 -79.07,0.74 -26.61,-14.41 -56.760001,-30.77 -96.930001,2.51 -3.565909,2.775097 -4.127505,7.950671 -1.239838,11.426044 2.887668,3.475372 8.078548,3.871246 11.459838,0.873956 z"
                 id="path51"
                 sodipodi:nodetypes="ccscscccsc"
                 style="fill:#04709d;fill-opacity:1"
                 inkscape:original-d="m 53.169639,80.884833 c 31.83,-26.37 53.720001,-14.49 79.070001,-0.74 15.11,8.2 31.35,17 49.93,17 14.14,0 29.64,-5.12 47,-19.5 3.44012,-2.811121 3.93088,-7.886781 1.09308,-11.304915 -2.8378,-3.418135 -7.91713,-3.8694 -11.31308,-1.005085 -31.83,26.38 -53.72,14.5 -79.07,0.74 -26.61,-14.41 -56.760001,-30.77 -96.930001,2.51 -3.565909,2.775097 -4.127505,7.950671 -1.239838,11.426044 2.887668,3.475372 8.078548,3.871246 11.459838,0.873956 z" /><path
                 d="m 226.26643,80.360562 c 31.83,-26.37 53.72,-14.49 79.07,-0.74 15.11,8.2 31.35,17 49.93,17 14.14,0 29.64,-5.12 47,-19.5 3.44012,-2.811121 3.93088,-7.886781 1.09308,-11.304915 -2.8378,-3.418135 -7.91713,-3.8694 -11.31308,-1.005085 -31.83,26.38 -53.72,14.5 -79.07,0.74 -26.61,-14.41 -56.76,-30.77 -96.93,2.51 -3.56591,2.775097 -4.12751,7.950671 -1.23984,11.426044 2.88767,3.475372 8.07855,3.871246 11.45984,0.873956 z"
                 id="path52"
                 sodipodi:nodetypes="ccscscccsc"
                 style="fill:#04709d;fill-opacity:1"
                 inkscape:original-d="m 226.26643,80.360562 c 31.83,-26.37 53.72,-14.49 79.07,-0.74 15.11,8.2 31.35,17 49.93,17 14.14,0 29.64,-5.12 47,-19.5 3.44012,-2.811121 3.93088,-7.886781 1.09308,-11.304915 -2.8378,-3.418135 -7.91713,-3.8694 -11.31308,-1.005085 -31.83,26.38 -53.72,14.5 -79.07,0.74 -26.61,-14.41 -56.76,-30.77 -96.93,2.51 -3.56591,2.775097 -4.12751,7.950671 -1.23984,11.426044 2.88767,3.475372 8.07855,3.871246 11.45984,0.873956 z" /></g></g></g><g
           id="g55"
           transform="translate(-13.706526,22.018964)"><g
             style="fill:#144886;fill-opacity:1"
             id="g54"
             transform="matrix(0.0910482,0,0,0.0910482,63.643882,164.51562)" /><g
             id="text55"
             style="font-size:17.5px;line-height:125%;letter-spacing:0px;word-spacing:0px;white-space:pre;fill:#f05a7e;stroke-width:1px"
             transform="matrix(0.67771306,0,0,0.67771306,-100.46563,-239.25459)"
             aria-label="CO2"><path
               style="font-family:'Gotham Ultra';-inkscape-font-specification:'Gotham Ultra'"
               d="m 248.33852,600.95237 c 2.6075,0 4.3925,-1.0675 5.6175,-2.6775 l -2.835,-2.24 c -0.665,0.8225 -1.435,1.2775 -2.38,1.2775 -1.085,0 -1.925,-0.7525 -1.925,-2.1 0,-1.68 1.19,-3.36 3.0275,-3.36 0.9275,0 1.645,0.49 1.9075,1.4875 l 3.6575,-1.5925 c -0.5075,-2.17 -2.38,-3.57 -5.0225,-3.57 -5.285,0 -7.8575,4.06 -7.8575,7.4025 0,3.29 2.38,5.3725 5.81,5.3725 z m 12.87998,-0.0175 c 4.1125,0 7.21,-3.395 7.21,-7.1925 0,-3.1325 -2.485,-5.5475 -6.09,-5.5475 -4.1125,0 -7.21,3.395 -7.21,7.1925 0,3.1325 2.485,5.5475 6.09,5.5475 z m 0.28,-3.605 c -1.47,0 -2.2575,-1.015 -2.2575,-2.31 0,-1.54 1.1025,-3.22 2.8175,-3.22 1.47,0 2.2575,1.015 2.2575,2.31 0,1.54 -1.1025,3.22 -2.8175,3.22 z"
               id="path2" /><path
               style="font-size:65%;font-family:'Gotham Ultra';-inkscape-font-specification:'Gotham Ultra';baseline-shift:sub"
               d="m 267.97784,604.18987 h 6.643 l 0.55738,-2.08162 h -3.003 l 1.44462,-0.79625 c 1.80863,-1.001 2.29775,-1.88825 2.29775,-2.8665 0,-1.37638 -1.05787,-2.35463 -2.8665,-2.35463 -1.56975,0 -2.66175,0.69388 -3.549,1.64938 l 1.5015,1.58112 c 0.60288,-0.5915 1.26263,-0.98962 1.71763,-0.98962 0.38675,0 0.55737,0.20475 0.55737,0.48912 0,0.23888 -0.0683,0.5005 -0.69387,0.88725 l -4.07225,2.5025 z"
               id="path3" /></g><g
             style="fill:#04709d;fill-opacity:1"
             id="g57"
             transform="matrix(0.05056224,0,0,0.05898533,68.311928,167.57289)"><path
               d="m 213.66,157.25348 c 3.12839,3.12491 6.18692,8.84433 3.05853,11.96924 l -79.47454,77.5899 c -3.12491,3.12839 -14.06621,3.29865 -17.19113,0.17026 L 39.52496,170.7221 c -3.125421,-3.12602 -0.310133,-10.34235 2.815586,-13.46807 3.12572,-3.12572 12.921163,-2.42819 16.047185,0.69723 l 69.901849,64.17663 71.10827,-66.54489 c 3.12491,-3.12839 11.13724,-1.45791 14.26215,1.67048 z"
               id="path1-2"
               style="fill:#04709d;fill-opacity:1"
               sodipodi:nodetypes="cccccscccc" /><path
               d="m 213.66,103.42652 c 3.12839,3.12491 6.18692,8.84433 3.05853,11.96924 l -79.47454,77.5899 c -3.12491,3.12839 -14.06621,3.29865 -17.19113,0.17026 l -80.5279,-76.26078 c -3.125421,-3.12602 -0.310133,-10.34235 2.815586,-13.46807 3.12572,-3.12572 12.921163,-2.42819 16.047185,0.69723 l 69.901849,64.17663 71.10827,-66.54489 c 3.12491,-3.128387 11.13724,-1.45791 14.26215,1.67048 z"
               id="path57"
               style="fill:#04709d;fill-opacity:1"
               sodipodi:nodetypes="cccccscccc" /><path
               d="m 213.66,49.599578 c 3.12839,3.12491 6.18692,8.844327 3.05853,11.969237 L 137.24399,139.1587 c -3.12491,3.12839 -14.06621,3.29865 -17.19113,0.17026 L 39.52496,63.068195 c -3.125421,-3.12602 -0.310133,-10.342347 2.815586,-13.468067 3.12572,-3.12572 12.921163,-2.42819 16.047185,0.69723 l 69.901849,64.176612 71.10827,-66.544872 c 3.12491,-3.128387 11.13724,-1.45791 14.26215,1.67048 z"
               id="path58"
               style="fill:#04709d;fill-opacity:1"
               sodipodi:nodetypes="cccccscccc" /></g><path
             style="fill:#0b8494;fill-opacity:1;stroke-width:0.749864;stroke-dasharray:none"
             d="m 66.536453,209.89962 c -0.276264,-0.10309 -0.495698,-0.20742 -0.487665,-0.23172 0.008,-0.0243 0.159206,-0.38677 0.335943,-0.8054 0.733893,-1.73849 0.937165,-3.45198 0.527998,-4.4508 -0.208438,-0.50879 -0.152218,-0.46314 -2.171299,-1.76313 -0.978685,-0.63012 -1.548433,-1.03586 -1.827001,-1.3011 -0.797098,-0.75891 -1.296584,-1.6871 -1.148698,-2.13459 0.08776,-0.26553 0.254355,-0.36616 0.4818,-0.29099 0.133429,0.0441 0.19714,0.14351 0.33337,0.52041 0.196754,0.54427 0.580509,1.05672 1.126708,1.50458 0.407441,0.33407 1.723792,1.18827 1.784275,1.15783 0.02001,-0.01 -0.09055,-0.25993 -0.245746,-0.55521 -0.37165,-0.70715 -0.614394,-1.35042 -0.813534,-2.15587 -0.159306,-0.64432 -0.16982,-0.66433 -0.475728,-0.905 -1.012922,-0.79687 -1.560738,-2.29795 -1.334548,-3.65676 0.04088,-0.24557 0.115533,-0.51148 0.165866,-0.5909 0.124983,-0.1971 0.370472,-0.21924 0.565481,-0.051 0.172677,0.14901 0.176436,0.17711 0.105422,0.78924 -0.06855,0.59093 -0.03378,0.9692 0.140897,1.53267 0.130502,0.42097 0.567742,1.17003 0.656808,1.12522 0.02135,-0.0108 0.03552,-0.0963 0.03125,-0.19031 -0.0042,-0.0939 0.03017,-0.48562 0.07627,-0.87041 0.07607,-0.63495 0.134738,-0.85268 0.634651,-2.35542 0.438152,-1.3172 0.608947,-1.76188 0.835091,-2.17447 0.32519,-0.59336 0.63743,-1.09921 0.797419,-1.29188 0.227269,-0.27368 0.670399,-0.14739 0.708393,0.20189 0.01414,0.13006 -0.06865,0.30058 -0.42129,0.86745 -0.550053,0.88425 -0.966467,1.86556 -1.368141,3.22411 -0.309286,1.04609 -0.429593,1.71471 -0.446805,2.48336 -0.01313,0.58615 0.04933,1.38338 0.109944,1.40342 0.02737,0.009 0.146699,-0.0499 0.265182,-0.13095 0.265623,-0.18172 0.499829,-0.61885 0.575622,-1.07436 0.149547,-0.8988 0.16695,-0.95177 0.341497,-1.0397 0.587146,-0.29546 0.74222,0.66446 0.295213,1.82744 -0.176148,0.45827 -0.23443,0.54539 -0.656211,0.98079 l -0.462895,0.47784 0.07384,0.27163 c 0.169769,0.62452 1.001748,2.14794 1.136119,2.08032 0.06621,-0.0333 0.07631,-0.76166 0.02009,-1.44938 -0.04408,-0.53919 0.0116,-0.9079 0.154797,-1.02495 0.03665,-0.0299 0.151226,-0.0583 0.254533,-0.0628 0.289713,-0.0128 0.352703,0.1311 0.411259,0.93981 0.09867,1.36223 0.09714,1.384 -0.140872,2.01056 l -0.215461,0.56722 0.24401,0.47398 c 0.276174,0.53645 0.452679,1.15576 0.461691,1.61995 0.0034,0.17315 0.01774,0.33792 0.03194,0.36616 0.01423,0.0282 0.437613,-1.19468 0.940905,-2.71758 l 0.915076,-2.76891 -0.428643,-0.95816 c -0.235758,-0.52698 -0.448778,-1.03357 -0.473384,-1.12574 -0.09069,-0.33973 0.302938,-0.62318 0.602043,-0.43352 0.08535,0.0542 0.236997,0.32118 0.381346,0.67166 0.131792,0.32 0.25851,0.59051 0.281605,0.60112 0.02304,0.0108 0.170169,-0.36857 0.326828,-0.8426 0.325317,-0.98437 0.334988,-0.89891 -0.172882,-1.52569 -0.946029,-1.16752 -1.193152,-1.92295 -1.093984,-3.34421 0.05455,-0.78182 0.19231,-0.97775 0.594115,-0.84496 0.209132,0.0691 0.252825,0.24619 0.224133,0.90829 -0.04614,1.0649 0.197663,1.89613 0.744321,2.53766 0.148326,0.17406 0.285878,0.32184 0.305679,0.32838 0.01981,0.007 0.252718,-0.64381 0.517579,-1.44525 l 0.481562,-1.45715 -0.127006,-0.20619 c -0.153253,-0.24878 -0.623189,-1.62361 -0.690832,-2.02107 -0.06282,-0.36913 0.04865,-0.55836 0.331614,-0.56295 0.281636,-0.005 0.371161,0.12183 0.619422,0.8744 0.110782,0.33584 0.220673,0.6182 0.24421,0.62748 0.02336,0.01 0.189334,-0.42657 0.368437,-0.96851 l 0.325642,-0.98535 -0.143078,-0.20122 c -0.07869,-0.11068 -0.243948,-0.31308 -0.367234,-0.44979 -0.204998,-0.22732 -0.217986,-0.26725 -0.151958,-0.46705 0.03971,-0.12016 0.113974,-0.23948 0.165023,-0.26517 0.125678,-0.0633 0.477336,0.0639 0.622093,0.22497 0.06481,0.0722 0.140667,0.13959 0.16845,0.15014 0.126264,0.047 0.12943,-0.50824 0.0062,-1.04866 -0.143634,-0.62991 -0.121746,-0.83863 0.09814,-0.93588 0.296777,-0.13124 0.526665,0.0932 0.658831,0.64302 0.02546,0.10595 0.06548,0.19845 0.08891,0.20555 0.02348,0.007 0.170079,-0.0886 0.325879,-0.21267 0.1558,-0.12408 0.365085,-0.24744 0.46508,-0.27413 0.172544,-0.0461 0.187831,-0.04 0.2999,0.11955 0.198183,0.28207 0.105841,0.45964 -0.494013,0.94994 -0.410833,0.3358 -0.548049,0.48471 -0.604736,0.65623 l -0.07332,0.22187 0.200827,-0.032 c 0.212671,-0.0339 0.4925,0.0348 0.5756,0.14126 0.02745,0.0351 0.0615,0.13354 0.07574,0.21871 0.04014,0.24021 -0.164595,0.40218 -0.602113,0.47639 -0.206644,0.035 -0.422378,0.0951 -0.479393,0.13349 -0.07405,0.0499 -0.196565,0.3535 -0.428681,1.06239 l -0.32519,0.99259 0.221402,-0.14251 c 0.121777,-0.0784 0.437499,-0.30775 0.701618,-0.50972 0.534591,-0.40878 0.729881,-0.47384 0.913173,-0.30419 0.146358,0.13546 0.133534,0.37587 -0.03091,0.57919 -0.274163,0.33896 -1.012686,0.90648 -1.590944,1.22257 l -0.609957,0.33343 -0.472571,1.42994 c -0.36534,1.10548 -0.456032,1.43525 -0.399713,1.4534 0.163673,0.0531 0.962738,-0.20944 1.288461,-0.42284 0.191795,-0.12566 0.507271,-0.39372 0.701056,-0.59568 0.3193,-0.33277 0.372916,-0.4225 0.571932,-0.9571 0.193965,-0.52105 0.237231,-0.5952 0.370531,-0.63525 0.212993,-0.064 0.333428,-0.009 0.467856,0.21507 0.111082,0.18479 0.108788,0.21768 -0.04727,0.67759 -0.414215,1.22073 -1.408486,2.10767 -2.770002,2.47102 -0.336153,0.0897 -0.704894,0.20518 -0.819424,0.2566 l -0.208232,0.0935 -0.294211,0.89024 c -0.161812,0.48963 -0.272232,0.89749 -0.245371,0.90637 0.02685,0.009 0.315396,-0.13979 0.641193,-0.33039 0.65103,-0.38084 0.887251,-0.44337 1.045633,-0.2768 0.139112,0.14634 0.162601,0.357 0.0592,0.53133 -0.05268,0.0888 -0.514187,0.38283 -1.14573,0.72995 l -1.057517,0.58124 -0.900388,2.71713 c -0.495155,1.49446 -0.880832,2.72329 -0.856731,2.73087 0.02408,0.008 0.180761,-0.15636 0.348144,-0.36431 0.381086,-0.47343 0.864279,-0.85362 1.410024,-1.10944 l 0.42261,-0.19811 0.158734,-0.48031 c 0.08731,-0.26417 0.241587,-0.59939 0.342846,-0.74495 0.228699,-0.32871 1.352951,-1.59987 1.491758,-1.68668 0.284481,-0.17792 0.671013,0.27863 0.48826,0.57678 -0.046,0.0751 -0.321922,0.40584 -0.613202,0.73519 -0.48579,0.54926 -0.909747,1.14013 -0.871952,1.21525 0.05115,0.10168 1.448592,-0.53346 2.070139,-0.94089 l 0.254152,-0.16659 -0.07191,-0.26451 c -0.18033,-0.66339 -0.05151,-1.52334 0.349486,-2.3331 0.222483,-0.44927 0.340372,-0.53389 0.616623,-0.44259 0.287264,0.0949 0.286074,0.27191 -0.0069,1.02856 -0.246701,0.63712 -0.256999,0.68727 -0.216623,1.05245 0.02332,0.21089 0.07089,0.37664 0.105699,0.36833 0.09064,-0.0216 0.676115,-0.73227 0.972152,-1.17994 0.450093,-0.68064 0.725504,-1.34256 1.202345,-2.88972 0.368364,-1.19512 0.458314,-1.55873 0.506367,-2.04663 0.128245,-1.30197 0.169021,-1.4192 0.506465,-1.45589 0.287471,-0.0313 0.413717,0.14768 0.398592,0.5648 -0.04036,1.11234 -0.108665,1.44299 -0.663766,3.21346 -0.54352,1.7335 -0.790182,2.34638 -1.204538,2.9928 -0.109955,0.17152 -0.191388,0.32876 -0.180991,0.34943 0.01041,0.0206 0.160662,-0.004 0.333951,-0.0542 0.627245,-0.18273 1.210969,-0.61274 1.822188,-1.34238 0.492725,-0.58817 0.698209,-0.7094 0.941278,-0.55528 0.08155,0.0517 0.154967,0.16679 0.164946,0.25851 0.04044,0.37179 -0.916902,1.50398 -1.694954,2.00454 -0.500083,0.32172 -1.311957,0.57873 -1.837771,0.58176 -0.40419,0.002 -0.404415,0.002 -0.978026,0.47009 -0.380032,0.30983 -0.875495,0.62608 -1.467528,0.93672 -0.659531,0.34604 -0.853534,0.47281 -0.740215,0.48368 0.08446,0.008 0.476232,0.0482 0.870598,0.089 1.450324,0.15023 2.055088,0.0863 2.920009,-0.30871 0.304127,-0.1389 0.588932,-0.24065 0.632897,-0.22612 0.15182,0.0502 0.308111,0.36425 0.257484,0.51744 -0.114856,0.34755 -0.814704,0.68103 -1.771769,0.84425 -2.610501,0.44523 -4.54695,-1.13128 -6.091753,0.46078 -0.708471,0.73015 -2.707696,3.55978 -2.876955,4.07193 -0.0092,0.0278 -0.03453,0.0386 -0.05637,0.0242 -0.02179,-0.0146 -0.265672,-0.11076 -0.541939,-0.21386 z"
             id="path59"
             sodipodi:nodetypes="cscsssssssssssscsssscssssssssssscsscssssssscsssscsscscsssssssscsssscscssssscssscssssscsssssccssssscscsssssssscsssssscccsscssssssscsssssssssssssscsssssssssssssssccc" /><path
             style="fill:none;fill-rule:evenodd;stroke:#04709d;stroke-width:1.65941;stroke-linecap:round;stroke-linejoin:miter;stroke-dasharray:none;stroke-opacity:1"
             d="M 60.616054,210.15093 H 86.356235"
             id="path60" /></g></g><path
         style="fill:none;fill-opacity:1;fill-rule:evenodd;stroke:#04709d;stroke-width:5;stroke-linecap:round;stroke-linejoin:round;stroke-dasharray:none;stroke-opacity:1"
         id="path70"
         sodipodi:type="arc"
         sodipodi:cx="60.904564"
         sodipodi:cy="232.40094"
         sodipodi:rx="37.031242"
         sodipodi:ry="37.031242"
         sodipodi:start="3.289218"
         sodipodi:end="3.2807012"
         sodipodi:open="true"
         sodipodi:arc-type="arc"
         d="m 24.276105,226.95402 a 37.031242,37.031242 0 0 1 41.997373,-31.19305 37.031242,37.031242 0 0 1 31.282408,41.93086 37.031242,37.031242 0 0 1 -41.86416,31.37161 37.031242,37.031242 0 0 1 -31.460683,-41.79726" /></g></g></svg>
