<?xml version="1.0" encoding="UTF-8" standalone="no"?>
<!-- Created with Inkscape (http://www.inkscape.org/) -->

<svg
   width="79.069397mm"
   height="79.069527mm"
   viewBox="0 0 79.069397 79.069527"
   version="1.1"
   id="svg1"
   xml:space="preserve"
   inkscape:export-filename="icono_argopy.png"
   inkscape:export-xdpi="149"
   inkscape:export-ydpi="149"
   inkscape:version="1.3.2 (091e20e, 2023-11-25)"
   sodipodi:docname="03_oxygen.svg"
   xmlns:inkscape="http://www.inkscape.org/namespaces/inkscape"
   xmlns:sodipodi="http://sodipodi.sourceforge.net/DTD/sodipodi-0.dtd"
   xmlns="http://www.w3.org/2000/svg"
   xmlns:svg="http://www.w3.org/2000/svg"><sodipodi:namedview
     id="namedview1"
     pagecolor="#ffffff"
     bordercolor="#666666"
     borderopacity="1.0"
     inkscape:showpageshadow="2"
     inkscape:pageopacity="0.0"
     inkscape:pagecheckerboard="0"
     inkscape:deskcolor="#d1d1d1"
     inkscape:document-units="mm"
     inkscape:zoom="1.4699074"
     inkscape:cx="-24.831496"
     inkscape:cy="192.52913"
     inkscape:window-width="1920"
     inkscape:window-height="1052"
     inkscape:window-x="0"
     inkscape:window-y="0"
     inkscape:window-maximized="1"
     inkscape:current-layer="layer1" /><defs
     id="defs1"><rect
       x="298.62219"
       y="333.48956"
       width="77.933578"
       height="85.345276"
       id="rect46" /></defs><g
     inkscape:label="Calque 1"
     inkscape:groupmode="layer"
     id="layer1"
     transform="translate(-24.72688,-107.92723)"><g
       id="g74"
       transform="translate(-0.730799,0.24402434)"><g
         id="g48"
         transform="matrix(1.2273426,0,0,1.2273426,-14.301738,-15.266255)"><g
           style="fill:#04709d;fill-opacity:1"
           id="g36"
           transform="matrix(0.03307292,0,0,0.03307292,43.974962,119.90689)"><g
             id="g37"
             transform="matrix(3.0928391,0,0,3.0928391,-83.426086,-203.30851)"
             style="fill:#04709d;fill-opacity:1"><path
               d="m 53.169639,80.884833 c 31.83,-26.37 53.720001,-14.49 79.070001,-0.74 15.11,8.2 31.35,17 49.93,17 14.14,0 29.64,-5.12 47,-19.5 3.44012,-2.811121 3.93088,-7.886781 1.09308,-11.304915 -2.8378,-3.418135 -7.91713,-3.8694 -11.31308,-1.005085 -31.83,26.38 -53.72,14.5 -79.07,0.74 -26.61,-14.41 -56.760001,-30.77 -96.930001,2.51 -3.565909,2.775097 -4.127505,7.950671 -1.239838,11.426044 2.887668,3.475372 8.078548,3.871246 11.459838,0.873956 z"
               id="path35"
               sodipodi:nodetypes="ccscscccsc"
               style="fill:#04709d;fill-opacity:1" /><path
               d="m 226.26643,80.360562 c 31.83,-26.37 53.72,-14.49 79.07,-0.74 15.11,8.2 31.35,17 49.93,17 14.14,0 29.64,-5.12 47,-19.5 3.44012,-2.811121 3.93088,-7.886781 1.09308,-11.304915 -2.8378,-3.418135 -7.91713,-3.8694 -11.31308,-1.005085 -31.83,26.38 -53.72,14.5 -79.07,0.74 -26.61,-14.41 -56.76,-30.77 -96.93,2.51 -3.56591,2.775097 -4.12751,7.950671 -1.23984,11.426044 2.88767,3.475372 8.07855,3.871246 11.45984,0.873956 z"
               id="path36"
               sodipodi:nodetypes="ccscscccsc"
               style="fill:#04709d;fill-opacity:1" /></g></g><g
           style="fill:#125b9a;fill-opacity:1"
           id="g38"
           transform="matrix(0.00872525,0.03190122,-0.03190122,0.00872525,59.260549,130.9871)"><g
             id="g39"
             transform="matrix(2.409223,0,0,2.409223,72.39845,-56.892897)"
             style="fill:#125b9a;fill-opacity:1;stroke-width:8.85358;stroke-dasharray:none"><path
               d="m 210,155.08 c -15.08,20.84 -37.53,34.88 -66.7,41.74 -20.08,4.72 -43.54,6 -70.12,3.93 1.6,11.88 3.84,24.39333 6.72,37.54 0.941475,4.31282 -1.788359,8.57315 -6.1,9.52 -0.564525,0.12685 -1.141399,0.19058 -1.72,0.19 -3.757436,-0.002 -7.006849,-2.6194 -7.81,-6.29 -3.26,-14.90667 -5.73,-29.11333 -7.41,-42.62 -13.48,-1.67333 -27.673333,-4.14333 -42.58,-7.41 -4.3157435,-0.9475 -7.0463912,-5.21402 -6.099284,-9.52984 0.9471073,-4.31583 5.213368,-7.04687 9.529284,-6.10016 13.133333,2.88 25.633333,5.12333 37.5,6.73 -2.09,-26.56 -0.78,-50 3.93,-70.06 C 66,83.55 80.05,61.1 100.88,46 115,35.76 140.15,23.64 179.27,24 c 21.19,0.21 40.83,4.33 43.81,6.08 1.16787,0.688321 2.14168,1.662127 2.83,2.83 1.75,3 5.87,22.59 6.08,43.78 0.22,21.62 -3.42,52.75 -21.99,78.39 z m -23.76,2.8 C 141.73184,149.04862 106.94128,114.25017 98.12,69.74 75.64,94 66.7,132.47 71.36,184.6 c 52.15,4.68 90.64,-4.25 114.89,-26.72 z m 26.2,-114.32 c -12.90057,-2.635469 -26.05646,-3.812857 -39.22,-3.51 -24.34,0.64 -44.71,6.49 -60.76,17.39 4.49858,45.55479 40.53573,81.59612 86.09,86.1 10.91,-16 16.76,-36.42 17.4,-60.76 0.30227,-13.163521 -0.87512,-26.319339 -3.51,-39.22 z"
               id="path37"
               sodipodi:nodetypes="cccccccccssccccccccccccccccccc"
               style="fill:#04709d;fill-opacity:1;stroke-width:44.9586;stroke-dasharray:none" /><g
               id="g49"
               transform="matrix(1.5771099,0,0,1.5771099,-119.24509,-26.842988)"
               style="fill:#2e6f90;fill-opacity:1"><path
                 style="fill:#2e6f90;fill-opacity:1;fill-rule:evenodd;stroke:#04709d;stroke-width:8.85358;stroke-linecap:butt;stroke-linejoin:miter;stroke-dasharray:none;stroke-opacity:1"
                 d="M 191.92357,77.17099 188.93901,49.232835"
                 id="path39" /><path
                 style="fill:#2e6f90;fill-opacity:1;fill-rule:evenodd;stroke:#04709d;stroke-width:8.85358;stroke-linecap:butt;stroke-linejoin:miter;stroke-dasharray:none;stroke-opacity:1"
                 d="m 177.78865,63.204257 25.78426,0.387091"
                 id="path40" /></g></g></g><g
           id="g46"
           transform="matrix(0.31215303,0,0,0.31215303,41.174068,115.08862)"><g
             id="g42"
             style="stroke:#0b8494;stroke-opacity:1"
             transform="matrix(1.2089021,0,0,1.2089021,-18.157676,-19.636052)"><path
               style="fill:none;fill-rule:evenodd;stroke:#0b8494;stroke-width:3.02574;stroke-linecap:round;stroke-linejoin:round;stroke-dasharray:none;stroke-opacity:1"
               id="path41"
               sodipodi:type="arc"
               sodipodi:cx="92.412788"
               sodipodi:cy="73.116104"
               sodipodi:rx="8.8198214"
               sodipodi:ry="8.8198214"
               sodipodi:start="4.9094674"
               sodipodi:end="4.9053951"
               sodipodi:open="true"
               sodipodi:arc-type="arc"
               d="M 94.139755,64.46701 A 8.8198214,8.8198214 0 0 1 101.06364,74.834264 8.8198214,8.8198214 0 0 1 90.703436,81.768697 8.8198214,8.8198214 0 0 1 83.75846,71.415562 8.8198214,8.8198214 0 0 1 94.104519,64.460049" /><path
               style="fill:none;fill-rule:evenodd;stroke:#0b8494;stroke-width:1.625;stroke-linecap:round;stroke-linejoin:round;stroke-dasharray:none;stroke-opacity:1"
               id="path42"
               sodipodi:type="arc"
               sodipodi:cx="92.233566"
               sodipodi:cy="72.963364"
               sodipodi:rx="5.9029946"
               sodipodi:ry="5.9029946"
               sodipodi:start="3.2985267"
               sodipodi:end="4.707779"
               sodipodi:open="true"
               sodipodi:arc-type="arc"
               d="m 86.403113,72.040781 a 5.9029946,5.9029946 0 0 1 5.803241,-4.980349" /></g><path
             style="font-size:64px;line-height:125%;font-family:'Gotham Ultra';-inkscape-font-specification:'Gotham Ultra';letter-spacing:0px;word-spacing:0px;white-space:pre;fill:#0b8494;stroke-width:1px"
             d="m 296.38305,393.98462 h 37.376 l 3.136,-11.712 h -16.896 l 8.128,-4.48 c 10.176,-5.632 12.928,-10.624 12.928,-16.128 0,-7.744 -5.952,-13.248 -16.128,-13.248 -8.832,0 -14.976,3.904 -19.968,9.28 l 8.448,8.896 c 3.392,-3.328 7.104,-5.568 9.664,-5.568 2.176,0 3.136,1.152 3.136,2.752 0,1.344 -0.384,2.816 -3.904,4.992 l -22.912,14.08 z"
             id="text42"
             transform="matrix(0.27854845,0,0,0.27854845,21.201359,-27.184385)"
             aria-label="2" /><g
             id="g44"
             transform="matrix(0.56308915,0,0,0.56308915,50.408504,11.45204)"
             style="stroke:#0b8494;stroke-opacity:1"><path
               style="fill:none;fill-rule:evenodd;stroke:#0b8494;stroke-width:3.02574;stroke-linecap:round;stroke-linejoin:round;stroke-dasharray:none;stroke-opacity:1"
               id="path43"
               sodipodi:type="arc"
               sodipodi:cx="92.412788"
               sodipodi:cy="73.116104"
               sodipodi:rx="8.8198214"
               sodipodi:ry="8.8198214"
               sodipodi:start="4.9094674"
               sodipodi:end="4.9053951"
               sodipodi:open="true"
               sodipodi:arc-type="arc"
               d="M 94.139755,64.46701 A 8.8198214,8.8198214 0 0 1 101.06364,74.834264 8.8198214,8.8198214 0 0 1 90.703436,81.768697 8.8198214,8.8198214 0 0 1 83.75846,71.415562 8.8198214,8.8198214 0 0 1 94.104519,64.460049" /><path
               style="fill:none;fill-rule:evenodd;stroke:#0b8494;stroke-width:1.625;stroke-linecap:round;stroke-linejoin:round;stroke-dasharray:none;stroke-opacity:1"
               id="path44"
               sodipodi:type="arc"
               sodipodi:cx="92.233566"
               sodipodi:cy="72.963364"
               sodipodi:rx="5.9029946"
               sodipodi:ry="5.9029946"
               sodipodi:start="3.2985267"
               sodipodi:end="4.707779"
               sodipodi:open="true"
               sodipodi:arc-type="arc"
               d="m 86.403113,72.040781 a 5.9029946,5.9029946 0 0 1 5.803241,-4.980349" /></g><g
             id="g75"
             transform="translate(0.11745707,-7.9740616)"
             style="fill:#0b8494;fill-opacity:1"><path
               style="fill:#0b8494;fill-opacity:1;fill-rule:evenodd;stroke:none;stroke-width:1.47414;stroke-linecap:round;stroke-linejoin:round;stroke-dasharray:none;stroke-opacity:1"
               id="path45"
               sodipodi:type="arc"
               sodipodi:cx="91.639145"
               sodipodi:cy="53.250046"
               sodipodi:rx="3.0533164"
               sodipodi:ry="3.0533164"
               sodipodi:start="3.3491134"
               sodipodi:end="3.2895102"
               sodipodi:arc-type="arc"
               d="m 88.651338,52.620957 a 3.0533164,3.0533164 0 0 1 3.572306,-2.36776 3.0533164,3.0533164 0 0 1 2.420726,3.53663 3.0533164,3.0533164 0 0 1 -3.500167,2.473153 3.0533164,3.0533164 0 0 1 -2.525033,-3.462928"
               sodipodi:open="true" /><path
               style="fill:#0b8494;fill-opacity:1;fill-rule:evenodd;stroke:#ffffff;stroke-width:0.734;stroke-linecap:round;stroke-linejoin:round;stroke-dasharray:none;stroke-opacity:1"
               id="path46"
               sodipodi:type="arc"
               sodipodi:cx="91.338531"
               sodipodi:cy="53.131916"
               sodipodi:rx="1.9340966"
               sodipodi:ry="1.9340966"
               sodipodi:start="3.3491134"
               sodipodi:end="4.6829697"
               sodipodi:arc-type="arc"
               d="M 89.445931,52.733425 A 1.9340966,1.9340966 0 0 1 91.28164,51.198656"
               sodipodi:open="true" /></g></g><path
           style="fill:none;fill-rule:evenodd;stroke:#04709d;stroke-width:0.786252;stroke-linecap:round;stroke-linejoin:round;stroke-dasharray:none;stroke-opacity:1"
           d="m 66.265158,125.23167 h 10.666291 v 10.52311 h 5.52946 L 71.457142,146.75855 60.640106,135.94151 h 5.305396 l 0.0059,-10.71544 z"
           id="path64"
           sodipodi:nodetypes="ccccccccc" /><g
           style="fill:#04709d;fill-opacity:1"
           id="g63"
           transform="matrix(0.03307292,0,0,0.03307292,43.974962,116.88884)"><g
             id="g62"
             transform="matrix(3.0928391,0,0,3.0928391,-83.426086,-203.30851)"
             style="fill:#04709d;fill-opacity:1"><path
               d="m 53.169639,80.884833 c 31.83,-26.37 53.720001,-14.49 79.070001,-0.74 15.11,8.2 31.35,17 49.93,17 14.14,0 29.64,-5.12 47,-19.5 3.44012,-2.811121 3.93088,-7.886781 1.09308,-11.304915 -2.8378,-3.418135 -7.91713,-3.8694 -11.31308,-1.005085 -31.83,26.38 -53.72,14.5 -79.07,0.74 -26.61,-14.41 -56.760001,-30.77 -96.930001,2.51 -3.565909,2.775097 -4.127505,7.950671 -1.239838,11.426044 2.887668,3.475372 8.078548,3.871246 11.459838,0.873956 z"
               id="path61"
               sodipodi:nodetypes="ccscscccsc"
               style="fill:#04709d;fill-opacity:1" /><path
               d="m 226.26643,80.360562 c 31.83,-26.37 53.72,-14.49 79.07,-0.74 15.11,8.2 31.35,17 49.93,17 14.14,0 29.64,-5.12 47,-19.5 3.44012,-2.811121 3.93088,-7.886781 1.09308,-11.304915 -2.8378,-3.418135 -7.91713,-3.8694 -11.31308,-1.005085 -31.83,26.38 -53.72,14.5 -79.07,0.74 -26.61,-14.41 -56.76,-30.77 -96.93,2.51 -3.56591,2.775097 -4.12751,7.950671 -1.23984,11.426044 2.88767,3.475372 8.07855,3.871246 11.45984,0.873956 z"
               id="path62"
               sodipodi:nodetypes="ccscscccsc"
               style="fill:#04709d;fill-opacity:1" /></g></g></g><path
         style="fill:none;fill-opacity:1;fill-rule:evenodd;stroke:#04709d;stroke-width:5;stroke-linecap:round;stroke-linejoin:round;stroke-dasharray:none;stroke-opacity:1"
         id="path70-9"
         sodipodi:type="arc"
         sodipodi:cx="64.992317"
         sodipodi:cy="147.21803"
         sodipodi:rx="37.031242"
         sodipodi:ry="37.031242"
         sodipodi:start="3.289218"
         sodipodi:end="3.2807012"
         sodipodi:open="true"
         sodipodi:arc-type="arc"
         d="M 28.363858,141.77112 A 37.031242,37.031242 0 0 1 70.361231,110.57806 37.031242,37.031242 0 0 1 101.64364,152.50892 37.031242,37.031242 0 0 1 59.779479,183.88054 37.031242,37.031242 0 0 1 28.318797,142.08327" /></g></g></svg>
