<?xml version="1.0" encoding="UTF-8" standalone="no"?>
<!-- Created with Inkscape (http://www.inkscape.org/) -->

<svg
   width="79.069397mm"
   height="79.069527mm"
   viewBox="0 0 79.069397 79.069527"
   version="1.1"
   id="svg1"
   xml:space="preserve"
   inkscape:export-filename="icono_argopy.png"
   inkscape:export-xdpi="149"
   inkscape:export-ydpi="149"
   inkscape:version="1.3.2 (091e20e, 2023-11-25)"
   sodipodi:docname="05_data.svg"
   xmlns:inkscape="http://www.inkscape.org/namespaces/inkscape"
   xmlns:sodipodi="http://sodipodi.sourceforge.net/DTD/sodipodi-0.dtd"
   xmlns="http://www.w3.org/2000/svg"
   xmlns:svg="http://www.w3.org/2000/svg"><sodipodi:namedview
     id="namedview1"
     pagecolor="#ffffff"
     bordercolor="#666666"
     borderopacity="1.0"
     inkscape:showpageshadow="2"
     inkscape:pageopacity="0.0"
     inkscape:pagecheckerboard="0"
     inkscape:deskcolor="#d1d1d1"
     inkscape:document-units="mm"
     inkscape:zoom="1.4699074"
     inkscape:cx="32.314961"
     inkscape:cy="142.18583"
     inkscape:window-width="1920"
     inkscape:window-height="1052"
     inkscape:window-x="0"
     inkscape:window-y="0"
     inkscape:window-maximized="1"
     inkscape:current-layer="g71" /><defs
     id="defs1" /><g
     inkscape:label="Calque 1"
     inkscape:groupmode="layer"
     id="layer1"
     transform="translate(-113.41384,-107.59744)"><g
       id="g71"
       transform="translate(1.0352934,29.660347)"><g
         id="g69"
         transform="translate(0.35558011,0.4109851)"><rect
           style="fill:none;fill-opacity:1;fill-rule:evenodd;stroke:#04709d;stroke-width:2.565;stroke-linecap:round;stroke-linejoin:round;stroke-dasharray:none;stroke-opacity:1"
           id="rect67"
           width="47.705219"
           height="35.990112"
           x="128.57814"
           y="97.153198"
           ry="2.9763057" /><path
           style="fill:none;fill-rule:evenodd;stroke:#04709d;stroke-width:2;stroke-linecap:butt;stroke-linejoin:miter;stroke-dasharray:none;stroke-opacity:1"
           d="m 152.87466,133.33138 v 7.65917"
           id="path67" /><path
           style="fill:none;fill-rule:evenodd;stroke:#04709d;stroke-width:2;stroke-linecap:round;stroke-linejoin:miter;stroke-dasharray:none;stroke-opacity:1"
           d="m 144.32909,140.93223 h 16.99934"
           id="path68" /><path
           style="fill:none;fill-rule:evenodd;stroke:#04709d;stroke-width:2;stroke-linecap:butt;stroke-linejoin:miter;stroke-dasharray:none;stroke-opacity:1"
           d="m 128.7244,122.88706 h 47.5064"
           id="path69" /><g
           style="fill:#0b8494;fill-opacity:1"
           id="g2"
           transform="matrix(0.07856107,0,0,0.07856107,131.58841,100.08042)"><path
             d="M 128,24 C 74.17,24 32,48.6 32,80 v 96 c 0,31.4 42.17,56 96,56 53.83,0 96,-24.6 96,-56 V 80 C 224,48.6 181.83,24 128,24 Z m 80,104 c 0,9.62 -7.88,19.43 -21.61,26.92 C 170.93,163.35 150.19,168 128,168 105.81,168 85.07,163.35 69.61,154.92 55.88,147.43 48,137.62 48,128 v -16.64 c 17.06,15 46.23,24.64 80,24.64 33.77,0 62.94,-9.68 80,-24.64 z M 69.61,53.08 C 85.07,44.65 105.81,40 128,40 c 22.19,0 42.93,4.65 58.39,13.08 13.73,7.49 21.61,17.3 21.61,26.92 0,9.62 -7.88,19.43 -21.61,26.92 C 170.93,115.35 150.19,120 128,120 105.81,120 85.07,115.35 69.61,106.92 55.88,99.43 48,89.62 48,80 48,70.38 55.88,60.57 69.61,53.08 Z M 186.39,202.92 C 170.93,211.35 150.19,216 128,216 105.81,216 85.07,211.35 69.61,202.92 55.88,195.43 48,185.62 48,176 v -16.64 c 17.06,15 46.23,24.64 80,24.64 33.77,0 62.94,-9.68 80,-24.64 V 176 c 0,9.62 -7.88,19.43 -21.61,26.92 z"
             id="path1-1"
             style="fill:#0b8494;fill-opacity:1" /></g><g
           style="fill:#f05a7e;fill-opacity:1"
           id="g66"
           transform="matrix(0.08122542,0,0,0.08122542,152.23685,99.927128)"><path
             d="M 224,96 H 184 V 56 a 8,8 0 0 0 -8,-8 H 56 v -8 a 8,8 0 0 0 -16,0 v 176 a 8,8 0 0 0 16,0 v -8 h 88 a 8,8 0 0 0 8,-8 v -40 h 72 a 8,8 0 0 0 8,-8 v -48 a 8,8 0 0 0 -8,-8 z M 168,64 V 96 H 56 V 64 Z M 136,192 H 56 v -32 h 80 z m 80,-48 H 56 v -32 h 160 z"
             id="path1"
             style="fill:#f05a7e;fill-opacity:1" /></g><path
           style="fill:none;fill-opacity:1;fill-rule:evenodd;stroke:#04709d;stroke-width:0.999;stroke-linecap:round;stroke-linejoin:round;stroke-dasharray:none;stroke-opacity:1"
           id="path73"
           sodipodi:type="arc"
           sodipodi:cx="152.82802"
           sodipodi:cy="128.03308"
           sodipodi:rx="2.0320129"
           sodipodi:ry="2.0320129"
           sodipodi:start="3.289218"
           sodipodi:end="3.2807012"
           sodipodi:open="true"
           sodipodi:arc-type="arc"
           d="m 150.81811,127.73419 a 2.0320129,2.0320129 0 0 1 2.30452,-1.71165 2.0320129,2.0320129 0 0 1 1.71655,2.30087 2.0320129,2.0320129 0 0 1 -2.29721,1.72145 2.0320129,2.0320129 0 0 1 -1.72634,-2.29354" /></g><path
         style="fill:none;fill-opacity:1;fill-rule:evenodd;stroke:#04709d;stroke-width:5;stroke-linecap:round;stroke-linejoin:round;stroke-dasharray:none;stroke-opacity:1"
         id="path70-8"
         sodipodi:type="arc"
         sodipodi:cx="151.91318"
         sodipodi:cy="117.47192"
         sodipodi:rx="37.031242"
         sodipodi:ry="37.031242"
         sodipodi:start="3.289218"
         sodipodi:end="3.2807012"
         sodipodi:open="true"
         sodipodi:arc-type="arc"
         d="M 115.28472,112.025 A 37.031242,37.031242 0 0 1 157.28209,80.831942 37.031242,37.031242 0 0 1 188.5645,122.7628 37.031242,37.031242 0 0 1 146.70034,154.13442 37.031242,37.031242 0 0 1 115.23966,112.33715" /></g></g></svg>
